<?xml version="1.0" encoding="UTF-8"?>
<svg version="1.1" xmlns="http://www.w3.org/2000/svg" width="370" height="260">
<path d="M0 0 C122.1 0 244.2 0 370 0 C370 85.8 370 171.6 370 260 C247.9 260 125.8 260 0 260 C0 174.2 0 88.4 0 0 Z " fill="#FDFDFD" transform="translate(0,0)"/>
<path d="M0 0 C0.99 0 1.98 0 3 0 C10.10238894 14.76907728 10.10238894 14.76907728 12.33203125 22.0390625 C13.26000458 24.7632883 14.56917629 27.22653244 15.8984375 29.7734375 C17.7144982 33.44419849 19.21538859 37.24392388 20.76953125 41.03125 C21.86999464 43.68633628 23.01178211 46.31508092 24.1875 48.9375 C28 57.47317814 28 57.47317814 28 61 C28.66 61 29.32 61 30 61 C30.79311367 62.72850345 31.5844259 64.45783354 32.375 66.1875 C32.81585938 67.15042969 33.25671875 68.11335938 33.7109375 69.10546875 C34.13632813 70.06066406 34.56171875 71.01585937 35 72 C35.38414062 72.86238281 35.76828125 73.72476563 36.1640625 74.61328125 C37 77 37 77 37 81 C37.66 81 38.32 81 39 81 C39.41511841 81.99797607 39.41511841 81.99797607 39.83862305 83.01611328 C41.11076119 86.05706618 42.39894987 89.09096707 43.6875 92.125 C44.12255859 93.17171875 44.55761719 94.2184375 45.00585938 95.296875 C47.44073863 100.99629608 49.83547032 105.42276919 54 110 C54 110.66 54 111.32 54 112 C56.31 112.33 58.62 112.66 61 113 C61 114.32 61 115.64 61 117 C42.85 117 24.7 117 6 117 C6 115.68 6 114.36 6 113 C6.69867188 112.95101562 7.39734375 112.90203125 8.1171875 112.8515625 C9.48230469 112.73941406 9.48230469 112.73941406 10.875 112.625 C11.77992187 112.55539063 12.68484375 112.48578125 13.6171875 112.4140625 C16.17941903 112.20431868 16.17941903 112.20431868 18 110 C18.41859817 103.40010212 15.8442868 97.77851152 13 92 C11.66114739 88.92063899 11 87.36246468 11 84 C-2.86 84 -16.72 84 -31 84 C-31.33 85.65 -31.66 87.3 -32 89 C-32.65575405 90.63806834 -33.34421757 92.26336989 -34.0625 93.875 C-36.75286322 100.46883568 -36.59503106 105.35023291 -34 112 C-30.04 112.33 -26.08 112.66 -22 113 C-22 114.32 -22 115.64 -22 117 C-34.87 117 -47.74 117 -61 117 C-61 115.68 -61 114.36 -61 113 C-54.3432282 110.05565863 -54.3432282 110.05565863 -51.6875 109.625 C-50.8521875 109.315625 -50.8521875 109.315625 -50 109 C-49.31329651 107.34148846 -48.65181218 105.67253194 -48 104 C-46.7899191 101.71614617 -45.56125113 99.44979943 -44.3125 97.1875 C-39.01670853 87.42546591 -34.73637385 77.28164259 -30.5625 67 C-28.59961814 62.22559759 -26.34741158 57.65469518 -24 53.0625 C-20.96329786 47.11694942 -18.38794619 41.13457916 -16.06640625 34.8671875 C-13.23788206 27.26229097 -9.58091162 20.06868815 -5.9050293 12.84643555 C-3.76620973 8.62451924 -1.82126701 4.36877132 0 0 Z " fill="#0A090A" transform="translate(96,115)"/>
<path d="M0 0 C9 1 9 1 12 4 C14.16049219 4.92383068 14.16049219 4.92383068 16.5 5.5625 C19.5258466 6.45512475 21.3126529 7.20843526 24 9 C24.92188461 11.76565382 25.11785222 13.38283702 25.09765625 16.23046875 C25.09443359 17.03291016 25.09121094 17.83535156 25.08789062 18.66210938 C25.07951172 19.49548828 25.07113281 20.32886719 25.0625 21.1875 C25.05798828 22.03248047 25.05347656 22.87746094 25.04882812 23.74804688 C25.03705403 25.83206155 25.0191189 27.91603977 25 30 C25.94875 30.309375 26.8975 30.61875 27.875 30.9375 C31 32 31 32 33 33 C33 33.66 33 34.32 33 35 C33.99 35.33 34.98 35.66 36 36 C36 64.71 36 93.42 36 123 C32.37 123 28.74 123 25 123 C22.9500837 120.9500837 23.81449501 116.62926885 23.79467773 113.80834961 C23.78477814 112.94988937 23.77487854 112.09142914 23.76467896 111.20695496 C23.73296691 108.35544641 23.70826836 105.50392118 23.68359375 102.65234375 C23.66303259 100.68078669 23.64203635 98.70923412 23.62062073 96.73768616 C23.56531347 91.53778715 23.5159425 86.3378478 23.46777344 81.13787842 C23.41762143 75.83602286 23.36190256 70.5342262 23.30664062 65.23242188 C23.19895327 54.82166485 23.09753195 44.41085677 23 34 C21.61941406 34.73669922 21.61941406 34.73669922 20.2109375 35.48828125 C16.80403873 37.09225914 14.70880956 37.26491497 11 37 C10.34 38.32 9.68 39.64 9 41 C6.03 41.66 3.06 42.32 0 43 C0 28.81 0 14.62 0 0 Z " fill="#F8DFA5" transform="translate(251,34)"/>
<path d="M0 0 C4.95 0.99 4.95 0.99 10 2 C10 43.91 10 85.82 10 129 C6.7 129 3.4 129 0 129 C0 86.43 0 43.86 0 0 Z " fill="#F39923" transform="translate(238,27)"/>
<path d="M0 0 C2.83359844 -0.05449228 5.66612485 -0.09390733 8.5 -0.125 C9.29148437 -0.14175781 10.08296875 -0.15851563 10.8984375 -0.17578125 C17.17518962 -0.22723004 22.70739231 0.51832654 28.5 3.125 C30.58588019 5.73235024 30.39766467 7.80330538 30.3359375 11.0625 C30 13 30 13 28 16 C27.34 16 26.68 16 26 16 C26 16.66 26 17.32 26 18 C25.34 18 24.68 18 24 18 C24.90901174 19.5877405 25.82757924 21.17001197 26.75 22.75 C27.26046875 23.63171875 27.7709375 24.5134375 28.296875 25.421875 C30.0131019 28.01983315 31.58744064 30.02943625 34 32 C35.32 32 36.64 32 38 32 C40.27005361 27.54064568 42.52827734 23.1006862 44.5 18.5 C46.11938379 14.72143781 47.94130604 11.08642499 49.81640625 7.4296875 C51.00372499 4.99235332 52.02374798 2.52835776 53 0 C56 1 56 1 57.02734375 3.00390625 C57.32769531 3.84824219 57.62804687 4.69257813 57.9375 5.5625 C59.16510303 8.85641196 60.4384282 12.00703009 62.0625 15.125 C63.42887913 17.76702215 64.55773336 20.38775961 65.5625 23.1875 C67.56921967 29.05692768 67.56921967 29.05692768 72 33 C72 33.66 72 34.32 72 35 C66.72 35 61.44 35 56 35 C56.66 34.34 57.32 33.68 58 33 C58.02375926 31.0068433 58.02375926 31.0068433 57.625 28.875 C57.41875 27.59625 57.2125 26.3175 57 25 C52.71 25 48.42 25 44 25 C43.67 27.64 43.34 30.28 43 33 C44.32 33 45.64 33 47 33 C47 33.66 47 34.32 47 35 C39.41 35 31.82 35 24 35 C22.68 32.69 21.36 30.38 20 28 C18.99146369 26.51856149 17.95480806 25.05532168 16.875 23.625 C16.37742187 22.95726562 15.87984375 22.28953125 15.3671875 21.6015625 C14.07194162 19.87350806 14.07194162 19.87350806 12 19 C12 23.62 12 28.24 12 33 C13.32 33 14.64 33 16 33 C16 33.66 16 34.32 16 35 C10.39 35 4.78 35 -1 35 C-1 34.34 -1 33.68 -1 33 C0.485 32.505 0.485 32.505 2 32 C2.33 22.1 2.66 12.2 3 2 C2.01 2 1.02 2 0 2 C0 1.34 0 0.68 0 0 Z " fill="#161616" transform="translate(290,165)"/>
<path d="M0 0 C0 28.05 0 56.1 0 85 C-18.48 85 -36.96 85 -56 85 C-56 84.34 -56 83.68 -56 83 C-53.10134642 82.03378214 -50.62465804 81.65453821 -47.59765625 81.31640625 C-46.01500977 81.13174805 -46.01500977 81.13174805 -44.40039062 80.94335938 C-42.17942361 80.68994301 -39.95806566 80.43992919 -37.73632812 80.19335938 C-36.67994141 80.06896484 -35.62355469 79.94457031 -34.53515625 79.81640625 C-33.569729 79.70756104 -32.60430176 79.59871582 -31.60961914 79.48657227 C-29.05875124 79.14914326 -29.05875124 79.14914326 -27.2275238 78.03990173 C-24.42815899 76.73304058 -21.79973088 76.33908948 -18.75 75.875 C-17.67234375 75.70742187 -16.5946875 75.53984375 -15.484375 75.3671875 C-14.66453125 75.24601562 -13.8446875 75.12484375 -13 75 C-12.99635437 74.1296965 -12.99270874 73.25939301 -12.98895264 72.36271667 C-12.95110809 64.16652961 -12.89429608 55.9707419 -12.81609726 47.77483654 C-12.77656394 43.56105667 -12.74440448 39.34748759 -12.72900391 35.13354492 C-12.71387545 31.06787508 -12.67949902 27.00278454 -12.63169098 22.93737221 C-12.61683756 21.38526757 -12.60895672 19.83308025 -12.60811615 18.28090477 C-12.60575643 16.1087585 -12.57876213 13.93822627 -12.54589844 11.76635742 C-12.53257477 9.91103645 -12.53257477 9.91103645 -12.51898193 8.01823425 C-12 5 -12 5 -10.1260376 3.15132141 C-6.66131288 1.27505556 -3.98048132 0 0 0 Z " fill="#F49923" transform="translate(194,72)"/>
<path d="M0 0 C2.88233571 3.30053173 3.58702464 5.62246121 4 10 C4.07605469 10.69480469 4.15210938 11.38960937 4.23046875 12.10546875 C4.62396935 18.28449164 3.05992592 22.32685611 -1 27 C-6.90442581 31.60545213 -11.70146647 32.64066301 -19 32 C-25.13008916 30.16097325 -28.98545312 25.48178409 -32 20 C-32.70013617 16.84137041 -32.50394461 14.17654975 -32 11 C-31.93683594 10.30777344 -31.87367188 9.61554688 -31.80859375 8.90234375 C-30.9775564 3.44274397 -28.22018388 0.81114206 -24.0703125 -2.65234375 C-16.14944995 -7.80837692 -7.23101824 -4.88061622 0 0 Z " fill="#0C0C0C" transform="translate(247,169)"/>
<path d="M0 0 C0 30.03 0 60.06 0 91 C-3.63 91 -7.26 91 -11 91 C-11 61.96 -11 32.92 -11 3 C-4 0 -4 0 0 0 Z " fill="#E9A13C" transform="translate(208,66)"/>
<path d="M0 0 C3.40312738 1.05875074 6.01353231 2.00902154 9 4 C9.28618725 6.84100433 9.37815744 9.46310581 9.34057617 12.30517578 C9.34101425 13.16378204 9.34145233 14.02238831 9.34190369 14.90701294 C9.33980874 17.75334178 9.31644467 20.59908619 9.29296875 23.4453125 C9.2873753 25.41543252 9.28310402 27.3855567 9.28010559 29.35568237 C9.26863705 34.5475003 9.23915262 39.73906746 9.20599365 44.93078613 C9.17533601 50.22595833 9.16160948 55.52117094 9.14648438 60.81640625 C9.11428482 71.21104783 9.06306426 81.60550308 9 92 C5.33885653 91.75037658 3.45432598 91.39649896 0.65437317 88.95292664 C-1.46244576 85.17457051 -1.54061938 81.96860067 -1.4699707 77.75317383 C-1.4721611 76.93635635 -1.4743515 76.11953888 -1.47660828 75.27796936 C-1.47891355 72.58724015 -1.452701 69.89761391 -1.42578125 67.20703125 C-1.42085662 65.33567146 -1.41755821 63.46430674 -1.41581726 61.59294128 C-1.4081842 57.67646487 -1.38764109 53.76035481 -1.35668945 49.84399414 C-1.31703306 44.81660364 -1.29906681 39.78945099 -1.28938007 34.76192188 C-1.2794227 29.97275929 -1.25952763 25.1836551 -1.23828125 20.39453125 C-1.23318763 19.01870849 -1.23318763 19.01870849 -1.2279911 17.61509132 C-1.21645038 15.0295371 -1.19793667 12.44413572 -1.17700195 9.85864258 C-1.17431305 9.08822632 -1.17162415 8.31781006 -1.16885376 7.52404785 C-1.11491518 2.22983037 -1.11491518 2.22983037 0 0 Z " fill="#F09929" transform="translate(226,18)"/>
<path d="M0 0 C1.32 0.33 2.64 0.66 4 1 C4 1.66 4 2.32 4 3 C4.804375 3.309375 5.60875 3.61875 6.4375 3.9375 C9 5 9 5 10 6 C10.09512944 8.67787973 10.12555279 11.32988869 10.11352539 14.00805664 C10.11367142 14.84700974 10.11381744 15.68596283 10.1139679 16.55033875 C10.1132685 19.33697044 10.10547485 22.12353616 10.09765625 24.91015625 C10.09579217 26.83686791 10.09436822 28.76358005 10.09336853 30.69029236 C10.08954259 35.77187397 10.07971166 40.8534272 10.06866455 45.93499756 C10.05845206 51.11616634 10.05387126 56.29733969 10.04882812 61.47851562 C10.03808946 71.65235625 10.02101213 81.82617577 10 92 C6.08393425 91.46599103 3.60661066 90.80330533 0 89 C0 59.63 0 30.26 0 0 Z " fill="#F49924" transform="translate(212,10)"/>
<path d="M0 0 C6.65171492 0 6.65171492 0 10 3 C10.48849402 5.82223219 10.63473507 8.04576988 10.56762695 10.86791992 C10.56872215 12.06826622 10.56872215 12.06826622 10.56983948 13.29286194 C10.56635437 15.93941913 10.52745184 18.58421888 10.48828125 21.23046875 C10.47895635 23.06463153 10.47183872 24.89880677 10.46684265 26.73298645 C10.44774729 31.56169998 10.3986248 36.38966209 10.34332275 41.21807861 C10.29218487 46.14463128 10.2693403 51.07130532 10.24414062 55.99804688 C10.19050839 65.66569483 10.105165 75.33278494 10 85 C6.7 85 3.4 85 0 85 C0 56.95 0 28.9 0 0 Z " fill="#F09B2F" transform="translate(290,72)"/>
<path d="M0 0 C2.475 0.99 2.475 0.99 5 2 C5.33 2.99 5.66 3.98 6 5 C6.99 5.33 7.98 5.66 9 6 C9 33.72 9 61.44 9 90 C6.03 90 3.06 90 0 90 C0 60.3 0 30.6 0 0 Z " fill="#F59722" transform="translate(277,66)"/>
<path d="M0 0 C3.37619502 0.84404875 6.6984852 1.89949507 10 3 C10.33 20.49 10.66 37.98 11 56 C18.6349138 57.56375324 18.6349138 57.56375324 26.28125 58.78125 C27.14234375 58.90113281 28.0034375 59.02101562 28.890625 59.14453125 C30.6608939 59.38569064 32.43175584 59.62252859 34.203125 59.85546875 C35.05390625 59.97535156 35.9046875 60.09523437 36.78125 60.21875 C37.54501953 60.32123047 38.30878906 60.42371094 39.09570312 60.52929688 C41 61 41 61 43 63 C28.81 63 14.62 63 0 63 C0 42.21 0 21.42 0 0 Z " fill="#F19924" transform="translate(303,93)"/>
<path d="M0 0 C0.99 0.33 1.98 0.66 3 1 C4.27712787 3.68167221 5.38718802 6.29349568 6.4375 9.0625 C8.44502401 14.23694952 10.53814986 19.26878935 13.08544922 24.20410156 C15.39805459 28.74535226 16.9907035 32.95351749 18 38 C7.11 38 -3.78 38 -15 38 C-12.76512456 29.06049822 -12.76512456 29.06049822 -11 25.875 C-9.29938971 22.66414625 -8.04719116 19.4906372 -7 16 C-6.34 16 -5.68 16 -5 16 C-4.87753906 15.29488281 -4.75507812 14.58976563 -4.62890625 13.86328125 C-3.96594799 10.84496817 -3.01824425 8.08110558 -1.9375 5.1875 C-1.57527344 4.21167969 -1.21304688 3.23585937 -0.83984375 2.23046875 C-0.56269531 1.49441406 -0.28554687 0.75835937 0 0 Z " fill="#F3F3F3" transform="translate(85,154)"/>
<path d="M0 0 C6.27 0 12.54 0 19 0 C18.67 0.66 18.34 1.32 18 2 C17.01 2.33 16.02 2.66 15 3 C14.67 7.29 14.34 11.58 14 16 C17.96 16 21.92 16 26 16 C26 11.71 26 7.42 26 3 C23.525 2.505 23.525 2.505 21 2 C21 1.34 21 0.68 21 0 C26.94 0 32.88 0 39 0 C39 0.66 39 1.32 39 2 C37.68 2.33 36.36 2.66 35 3 C34.67 13.23 34.34 23.46 34 34 C31.36 34 28.72 34 26 34 C26 28.72 26 23.44 26 18 C22.04 18 18.08 18 14 18 C14 22.95 14 27.9 14 33 C15.32 33 16.64 33 18 33 C18 33.66 18 34.32 18 35 C12.39 35 6.78 35 1 35 C1.99 34.01 2.98 33.02 4 32 C4.66 32 5.32 32 6 32 C5.67 22.43 5.34 12.86 5 3 C3.35 2.67 1.7 2.34 0 2 C0 1.34 0 0.68 0 0 Z " fill="#1B1B1B" transform="translate(173,165)"/>
<path d="M0 0 C3.96 0 7.92 0 12 0 C11.01 0.33 10.02 0.66 9 1 C9 4.3 9 7.6 9 11 C11.64 11 14.28 11 17 11 C16.88590407 9.54077307 16.75834456 8.08259402 16.625 6.625 C16.55539063 5.81289062 16.48578125 5.00078125 16.4140625 4.1640625 C16.17107412 1.79665809 16.17107412 1.79665809 14 0 C22.25 0 30.5 0 39 0 C38.01 0.33 37.02 0.66 36 1 C36 8.26 36 15.52 36 23 C36.99 23.33 37.98 23.66 39 24 C30.75 24 22.5 24 14 24 C14.66 23.34 15.32 22.68 16 22 C16.46162427 19.56747339 16.46162427 19.56747339 16.625 16.875 C16.69976562 15.96492187 16.77453125 15.05484375 16.8515625 14.1171875 C16.90054688 13.41851562 16.94953125 12.71984375 17 12 C14.36 12 11.72 12 9 12 C9 15.63 9 19.26 9 23 C9.99 23.33 10.98 23.66 12 24 C8.04 24 4.08 24 0 24 C0.99 23.67 1.98 23.34 3 23 C3 15.74 3 8.48 3 1 C2.01 0.67 1.02 0.34 0 0 Z " fill="#F0F0EF" transform="translate(211,208)"/>
<path d="M0 0 C4.95 0.99 4.95 0.99 10 2 C10 43.91 10 85.82 10 129 C6.7 129 3.4 129 0 129 C0 86.43 0 43.86 0 0 Z M2 2 C2 43.25 2 84.5 2 127 C3.98 127 5.96 127 8 127 C8.04669413 111.14499847 8.08197613 95.29001547 8.10362434 79.43496227 C8.11394257 72.07339875 8.12801332 64.71187792 8.15087891 57.3503418 C8.17079608 50.93498958 8.18371246 44.51966829 8.18817699 38.10428602 C8.19078722 34.70651601 8.19693366 31.30883445 8.21146011 27.91109276 C8.22590739 24.12060605 8.22798077 20.33030458 8.22705078 16.53979492 C8.23424133 15.40979065 8.24143188 14.27978638 8.24884033 13.11553955 C8.246091 12.08488876 8.24334167 11.05423798 8.24050903 9.99235535 C8.24235262 9.09545077 8.24419621 8.1985462 8.24609566 7.2744627 C8.14685892 4.71981389 8.14685892 4.71981389 6 2 C4.68 2 3.36 2 2 2 Z " fill="#DEA046" transform="translate(238,27)"/>
<path d="M0 0 C2.91821463 -0.13510253 5.83017652 -0.2341305 8.75 -0.3125 C9.9875 -0.3753418 9.9875 -0.3753418 11.25 -0.43945312 C17.35663963 -0.56257086 17.35663963 -0.56257086 20.55078125 2.23046875 C22.00244819 5.00467862 22.51720876 6.53230029 22.4375 9.625 C22.43621094 10.38039062 22.43492187 11.13578125 22.43359375 11.9140625 C22 14 22 14 20.91015625 15.7734375 C19 17 19 17 12 17 C12 22.28 12 27.56 12 33 C13.32 33 14.64 33 16 33 C16 33.66 16 34.32 16 35 C10.39 35 4.78 35 -1 35 C-1 34.34 -1 33.68 -1 33 C0.485 32.505 0.485 32.505 2 32 C2.33 22.1 2.66 12.2 3 2 C2.01 2 1.02 2 0 2 C0 1.34 0 0.68 0 0 Z " fill="#2B2B2B" transform="translate(290,165)"/>
<path d="M0 0 C3.18256788 0.06931182 3.93424156 0.22826274 6.5625 2.25 C9.7742198 6.61793893 9.37873751 10.41846364 9.4375 15.6875 C9.46650391 16.54279297 9.49550781 17.39808594 9.52539062 18.27929688 C9.56788075 22.49889332 9.50774023 24.76024817 7.23046875 28.41796875 C3.57488562 31.81582988 1.0217218 31.46568003 -3.875 31.375 C-3.875 30.715 -3.875 30.055 -3.875 29.375 C-4.535 29.375 -5.195 29.375 -5.875 29.375 C-8.67315147 24.64479157 -9.34073574 20.71127663 -9.25 15.3125 C-9.26160156 14.61833984 -9.27320313 13.92417969 -9.28515625 13.20898438 C-9.24673996 6.46692608 -7.22511967 0.69920513 0 0 Z " fill="#F2F2F2" transform="translate(232.875,166.625)"/>
<path d="M0 0 C1.31092632 3.93277897 0.29157663 5.05755452 -1.4375 8.75 C-4.54216149 15.90796955 -4.86222117 20.66555824 -2 28 C1.96 28.33 5.92 28.66 10 29 C10 30.32 10 31.64 10 33 C-2.87 33 -15.74 33 -29 33 C-29 31.68 -29 30.36 -29 29 C-22.3432282 26.05565863 -22.3432282 26.05565863 -19.6875 25.625 C-19.130625 25.41875 -18.57375 25.2125 -18 25 C-17.31338062 23.34145364 -16.65243733 21.67228818 -16 20 C-14.72383102 17.44837319 -13.36087915 14.94477191 -12 12.4375 C-8.92287749 6.75887621 -8.92287749 6.75887621 -6 1 C-4.7934375 1.0309375 -4.7934375 1.0309375 -3.5625 1.0625 C-1.06645115 1.29633621 -1.06645115 1.29633621 0 0 Z " fill="#1A1B1A" transform="translate(64,199)"/>
<path d="M0 0 C10.23 0 20.46 0 31 0 C31 2.97 31 5.94 31 9 C28 7 28 7 27 4 C24.69 3.67 22.38 3.34 20 3 C20 12.9 20 22.8 20 33 C21.65 33 23.3 33 25 33 C25 33.66 25 34.32 25 35 C19.06 35 13.12 35 7 35 C7 34.34 7 33.68 7 33 C8.32 33 9.64 33 11 33 C11 23.1 11 13.2 11 3 C8.69 3.33 6.38 3.66 4 4 C3.34 5.98 2.68 7.96 2 10 C1.34 10 0.68 10 0 10 C0 6.7 0 3.4 0 0 Z " fill="#272727" transform="translate(255,165)"/>
<path d="M0 0 C5.94 0 11.88 0 18 0 C18 0.66 18 1.32 18 2 C16.68 2.33 15.36 2.66 14 3 C13.67 12.57 13.34 22.14 13 32 C16.96 31.67 20.92 31.34 25 31 C28.02023495 27.39309431 28.02023495 27.39309431 29.1328125 24.71484375 C29.56207031 23.86599609 29.56207031 23.86599609 30 23 C30.66 23 31.32 23 32 23 C31.67 26.96 31.34 30.92 31 35 C20.77 35 10.54 35 0 35 C0 34.34 0 33.68 0 33 C1.65 33 3.3 33 5 33 C5 22.77 5 12.54 5 2 C3.35 2 1.7 2 0 2 C0 1.34 0 0.68 0 0 Z " fill="#101010" transform="translate(139,165)"/>
<path d="M0 0 C7 1 7 1 8.90820312 2.08813477 C10.63155133 5.10592094 10.46779745 8.20521159 10.46875 11.58984375 C10.47636353 12.33077774 10.48397705 13.07171173 10.49182129 13.83509827 C10.50261853 15.40101759 10.50547688 16.9670089 10.50097656 18.53295898 C10.50000459 20.9261924 10.54161326 23.31621442 10.5859375 25.70898438 C10.59114506 27.23176416 10.59383268 28.75455507 10.59375 30.27734375 C10.6183429 31.34782204 10.6183429 31.34782204 10.64343262 32.43992615 C10.59280474 36.08910574 10.27721183 37.69841957 7.77539062 40.42016602 C5 42 5 42 0 43 C0 28.81 0 14.62 0 0 Z " fill="#ED982A" transform="translate(251,34)"/>
<path d="M0 0 C4.95 0 9.9 0 15 0 C15.433125 1.381875 15.86625 2.76375 16.3125 4.1875 C17.5089106 7.79366214 18.94882983 10.78947278 21 14 C21.67966676 15.66140763 22.34938905 17.32700041 23 19 C23.33 19.33 23.66 19.66 24 20 C24.32613281 19.08476562 24.65226562 18.16953125 24.98828125 17.2265625 C25.42527344 16.03804687 25.86226562 14.84953125 26.3125 13.625 C26.74175781 12.44164062 27.17101562 11.25828125 27.61328125 10.0390625 C29 7 29 7 32 5 C31.63800684 10.55056173 29.9339411 14.33592944 27.34375 19.22265625 C25.04914287 23.965289 23.54614063 28.97288354 22 34 C21.01 34 20.02 34 19 34 C18.76925781 33.32195312 18.53851562 32.64390625 18.30078125 31.9453125 C16.2756357 26.16604338 13.99574525 20.71164223 11.1484375 15.2890625 C9.96158854 12.92343839 8.98294335 10.45735838 8 8 C7.67 16.25 7.34 24.5 7 33 C7.99 33.33 8.98 33.66 10 34 C7.69 34 5.38 34 3 34 C3.15847412 33.47438477 3.31694824 32.94876953 3.48022461 32.40722656 C4.12734826 29.41021426 4.21888088 26.54945792 4.31640625 23.484375 C4.35830078 22.23398438 4.40019531 20.98359375 4.44335938 19.6953125 C4.48267578 18.39335937 4.52199219 17.09140625 4.5625 15.75 C4.62727539 13.77386719 4.62727539 13.77386719 4.69335938 11.7578125 C4.79941917 8.50531212 4.90148024 5.25273608 5 2 C3.35 1.67 1.7 1.34 0 1 C0 0.67 0 0.34 0 0 Z " fill="#222222" transform="translate(8,166)"/>
<path d="M0 0 C1.32 0.33 2.64 0.66 4 1 C4 1.66 4 2.32 4 3 C4.804375 3.309375 5.60875 3.61875 6.4375 3.9375 C9 5 9 5 10 6 C10.09512944 8.67787973 10.12555279 11.32988869 10.11352539 14.00805664 C10.11367142 14.84700974 10.11381744 15.68596283 10.1139679 16.55033875 C10.1132685 19.33697044 10.10547485 22.12353616 10.09765625 24.91015625 C10.09579217 26.83686791 10.09436822 28.76358005 10.09336853 30.69029236 C10.08954259 35.77187397 10.07971166 40.8534272 10.06866455 45.93499756 C10.05845206 51.11616634 10.05387126 56.29733969 10.04882812 61.47851562 C10.03808946 71.65235625 10.02101213 81.82617577 10 92 C6.08393425 91.46599103 3.60661066 90.80330533 0 89 C0 59.63 0 30.26 0 0 Z M2 4 C1.93059321 14.78727317 1.87723627 25.57449351 1.84456348 36.3619442 C1.82888486 41.37060793 1.80760666 46.37911929 1.77368164 51.38769531 C1.74116632 56.21819183 1.72316355 61.04854147 1.71536827 65.87913895 C1.70981065 67.72520893 1.69895844 69.57127057 1.68280983 71.41727829 C1.66113932 73.99630062 1.65802867 76.57471037 1.65942383 79.15380859 C1.648638 79.92272934 1.63785217 80.69165009 1.6267395 81.48387146 C1.60512376 83.82479811 1.60512376 83.82479811 2 87 C4.81509993 89.2773501 4.81509993 89.2773501 8 89 C8 61.61 8 34.22 8 6 C6.02 5.34 4.04 4.68 2 4 Z " fill="#DB9F46" transform="translate(212,10)"/>
<path d="M0 0 C6.65171492 0 6.65171492 0 10 3 C10.48849402 5.82223219 10.63473507 8.04576988 10.56762695 10.86791992 C10.56872215 12.06826622 10.56872215 12.06826622 10.56983948 13.29286194 C10.56635437 15.93941913 10.52745184 18.58421888 10.48828125 21.23046875 C10.47895635 23.06463153 10.47183872 24.89880677 10.46684265 26.73298645 C10.44774729 31.56169998 10.3986248 36.38966209 10.34332275 41.21807861 C10.29218487 46.14463128 10.2693403 51.07130532 10.24414062 55.99804688 C10.19050839 65.66569483 10.105165 75.33278494 10 85 C6.7 85 3.4 85 0 85 C0 56.95 0 28.9 0 0 Z M3 4 C1.31496301 5.68503699 1.88034017 7.76259884 1.87557983 10.01094055 C1.87917511 10.72735214 1.88277039 11.44376373 1.88647461 12.18188477 C1.88632858 12.93305573 1.88618256 13.68422668 1.8860321 14.4581604 C1.88673137 16.95260459 1.89452436 19.44697503 1.90234375 21.94140625 C1.90420788 23.66633564 1.90563181 25.39126557 1.90663147 27.11619568 C1.91045703 31.66512503 1.92028762 36.21402267 1.93133545 40.76293945 C1.94154876 45.40120006 1.94612892 50.03946577 1.95117188 54.67773438 C1.96190986 63.78517022 1.97898673 72.89258248 2 82 C3.98 82 5.96 82 8 82 C8 56.92 8 31.84 8 6 C5.525 5.01 5.525 5.01 3 4 Z " fill="#DFA957" transform="translate(290,72)"/>
<path d="M0 0 C0 28.05 0 56.1 0 85 C-18.48 85 -36.96 85 -56 85 C-56 84.34 -56 83.68 -56 83 C-53.10134642 82.03378214 -50.62465804 81.65453821 -47.59765625 81.31640625 C-46.01500977 81.13174805 -46.01500977 81.13174805 -44.40039062 80.94335938 C-42.17942361 80.68994301 -39.95806566 80.43992919 -37.73632812 80.19335938 C-36.67994141 80.06896484 -35.62355469 79.94457031 -34.53515625 79.81640625 C-33.569729 79.70756104 -32.60430176 79.59871582 -31.60961914 79.48657227 C-29.05875124 79.14914326 -29.05875124 79.14914326 -27.2275238 78.03990173 C-24.42815899 76.73304058 -21.79973088 76.33908948 -18.75 75.875 C-17.67234375 75.70742187 -16.5946875 75.53984375 -15.484375 75.3671875 C-14.66453125 75.24601562 -13.8446875 75.12484375 -13 75 C-12.99635437 74.1296965 -12.99270874 73.25939301 -12.98895264 72.36271667 C-12.95110809 64.16652961 -12.89429608 55.9707419 -12.81609726 47.77483654 C-12.77656394 43.56105667 -12.74440448 39.34748759 -12.72900391 35.13354492 C-12.71387545 31.06787508 -12.67949902 27.00278454 -12.63169098 22.93737221 C-12.61683756 21.38526757 -12.60895672 19.83308025 -12.60811615 18.28090477 C-12.60575643 16.1087585 -12.57876213 13.93822627 -12.54589844 11.76635742 C-12.53257477 9.91103645 -12.53257477 9.91103645 -12.51898193 8.01823425 C-12 5 -12 5 -10.1260376 3.15132141 C-6.66131288 1.27505556 -3.98048132 0 0 0 Z M-11 6 C-11.33 29.1 -11.66 52.2 -12 76 C-14.97 76.495 -14.97 76.495 -18 77 C-18 77.66 -18 78.32 -18 79 C-18.969375 78.95875 -19.93875 78.9175 -20.9375 78.875 C-25.37744716 78.875 -29.79852328 79.5394008 -34 81 C-34.495 81.99 -34.495 81.99 -35 83 C-23.78 83 -12.56 83 -1 83 C-1 56.6 -1 30.2 -1 3 C-5.52174919 2.7018576 -5.52174919 2.7018576 -11 6 Z " fill="#E2B36C" transform="translate(194,72)"/>
<path d="M0 0 C2.75105422 -0.10812003 5.49785087 -0.18734945 8.25 -0.25 C9.02730469 -0.28351563 9.80460938 -0.31703125 10.60546875 -0.3515625 C14.40464575 -0.4165057 16.37285633 -0.43594133 19.5625 1.78125 C21 4 21 4 20.75 7.75 C20.5025 8.8225 20.255 9.895 20 11 C18.68 11.33 17.36 11.66 16 12 C16.49371094 12.69867188 16.98742187 13.39734375 17.49609375 14.1171875 C18.13675781 15.02726563 18.77742188 15.93734375 19.4375 16.875 C20.07558594 17.77992188 20.71367187 18.68484375 21.37109375 19.6171875 C23 22 23 22 24 24 C20.9375 24.625 20.9375 24.625 17 24 C14.8375573 21.57373929 13.18110731 19.05209908 11.48046875 16.28515625 C10.20325832 13.8901722 10.20325832 13.8901722 8 13 C8.11409593 14.45922693 8.24165544 15.91740598 8.375 17.375 C8.44460937 18.18710938 8.51421875 18.99921875 8.5859375 19.8359375 C8.82892588 22.20334191 8.82892588 22.20334191 11 24 C7.37 24 3.74 24 0 24 C0.66 23.34 1.32 22.68 2 22 C2.37004294 19.77341846 2.37004294 19.77341846 2.4140625 17.2109375 C2.45273438 16.26992187 2.49140625 15.32890625 2.53125 14.359375 C2.5621875 13.37453125 2.593125 12.3896875 2.625 11.375 C2.66367188 10.38242188 2.70234375 9.38984375 2.7421875 8.3671875 C2.8366314 5.91164615 2.92219875 3.4561159 3 1 C2.01 0.67 1.02 0.34 0 0 Z " fill="#0E0E0E" transform="translate(161,208)"/>
<path d="M0 0 C0.33 0.66 0.66 1.32 1 2 C2.65 2 4.3 2 6 2 C6 2.66 6 3.32 6 4 C8.97 4.495 8.97 4.495 12 5 C12 5.66 12 6.32 12 7 C7.545 6.01 7.545 6.01 3 5 C3 47.57 3 90.14 3 134 C2.67 134 2.34 134 2 134 C1.9906543 132.71311279 1.98130859 131.42622559 1.97167969 130.1003418 C1.93184185 125.33094519 1.86610051 120.56219788 1.79248047 115.79321289 C1.76423478 113.7281935 1.74303822 111.66306526 1.72900391 109.59790039 C1.70762416 106.63110485 1.66099991 103.6656229 1.609375 100.69921875 C1.60814636 99.7741301 1.60691772 98.84904144 1.60565186 97.8959198 C1.64662429 92.87893465 1.64662429 92.87893465 -1.03808594 88.89379883 C-2.0092334 88.45136841 -2.0092334 88.45136841 -3 88 C-2.01 88 -1.02 88 0 88 C0 58.96 0 29.92 0 0 Z " fill="#F7DA95" transform="translate(235,22)"/>
<path d="M0 0 C0 26.4 0 52.8 0 80 C-11.22 80 -22.44 80 -34 80 C-33 78 -33 78 -31.1796875 77.3671875 C-26.33738332 76.3330683 -21.95047466 75.7893415 -17 76 C-17 75.34 -17 74.68 -17 74 C-14.03 73.505 -14.03 73.505 -11 73 C-10.67 49.9 -10.34 26.8 -10 3 C-4 0 -4 0 0 0 Z M-5.0625 2.875 C-8.30933496 6.4360448 -8.14392255 8.71514565 -8.20532227 13.46923828 C-8.21522186 14.13277313 -8.22512146 14.79630798 -8.23532104 15.47994995 C-8.26694916 17.67670097 -8.29169854 19.87347363 -8.31640625 22.0703125 C-8.33697466 23.59203661 -8.3579711 25.113755 -8.37937927 26.63546753 C-8.43461171 30.6434465 -8.48401578 34.65147713 -8.53222656 38.6595459 C-8.58243305 42.74833787 -8.63812356 46.83705468 -8.69335938 50.92578125 C-8.80095528 58.95045732 -8.90239704 66.9751962 -9 75 C-9.804375 75.28875 -10.60875 75.5775 -11.4375 75.875 C-14.1326468 76.73262568 -14.1326468 76.73262568 -15 79 C-10.38 79 -5.76 79 -1 79 C-1 53.26 -1 27.52 -1 1 C-3.21791796 0.77577574 -3.21791796 0.77577574 -5.0625 2.875 Z " fill="#E59C37" transform="translate(193,75)"/>
<path d="M0 0 C2.64 0 5.28 0 8 0 C8.33 0.66 8.66 1.32 9 2 C6.36 2 3.72 2 1 2 C1 3.32 1 4.64 1 6 C3.64 6 6.28 6 9 6 C9.268125 5.38125 9.53625 4.7625 9.8125 4.125 C11 2 11 2 14 0 C17.1875 -0.125 17.1875 -0.125 20 0 C20 0.66 20 1.32 20 2 C20.66 2 21.32 2 22 2 C22.33 2.99 22.66 3.98 23 5 C23.66 3.35 24.32 1.7 25 0 C28.375 -0.125 28.375 -0.125 32 0 C34 2 34 2 34.1875 5.0625 C34 8 34 8 33 9 C31.00041636 9.04080783 28.99954746 9.04254356 27 9 C27.33 10.65 27.66 12.3 28 14 C27.01 14 26.02 14 25 14 C24.34 13.01 23.68 12.02 23 11 C22.01 12.485 22.01 12.485 21 14 C16.87086878 14.38232696 13.43760774 14.51209797 10 12 C9.67 11.01 9.34 10.02 9 9 C6.69 8.67 4.38 8.34 2 8 C2 9.32 2 10.64 2 12 C4.31 12 6.62 12 9 12 C9 12.66 9 13.32 9 14 C6.03 14 3.06 14 0 14 C0 9.38 0 4.76 0 0 Z " fill="#CEBF99" transform="translate(271,235)"/>
<path d="M0 0 C3.125 0.1875 3.125 0.1875 6.125 2.1875 C7.115 1.5275 8.105 0.8675 9.125 0.1875 C10.125 1.1875 10.125 1.1875 10.22265625 3.47265625 C10.21105469 4.38917969 10.19945312 5.30570313 10.1875 6.25 C10.17847656 7.16910156 10.16945312 8.08820313 10.16015625 9.03515625 C10.14855469 9.74542969 10.13695312 10.45570313 10.125 11.1875 C12.55457124 11.32303699 12.55457124 11.32303699 15.125 11.1875 C18.04849786 8.37227983 18.99311396 5.01849891 20.125 1.1875 C21.445 1.1875 22.765 1.1875 24.125 1.1875 C24.785 3.1675 25.445 5.1475 26.125 7.1875 C27.115 7.1875 28.105 7.1875 29.125 7.1875 C29.310625 5.7334375 29.310625 5.7334375 29.5 4.25 C29.70625 3.239375 29.9125 2.22875 30.125 1.1875 C33.08164519 -0.2908226 35.86729737 0.12717217 39.125 0.1875 C39.62 1.6725 39.62 1.6725 40.125 3.1875 C37.485 3.1875 34.845 3.1875 32.125 3.1875 C32.125 5.8275 32.125 8.4675 32.125 11.1875 C34.765 11.5175 37.405 11.8475 40.125 12.1875 C38.125 14.1875 38.125 14.1875 34.6875 14.4375 C31.125 14.1875 31.125 14.1875 28.125 12.1875 C28.125 12.8475 28.125 13.5075 28.125 14.1875 C27.135 14.1875 26.145 14.1875 25.125 14.1875 C25.125 12.8675 25.125 11.5475 25.125 10.1875 C23.145 10.1875 21.165 10.1875 19.125 10.1875 C18.795 11.5075 18.465 12.8275 18.125 14.1875 C14.495 14.1875 10.865 14.1875 7.125 14.1875 C6.795 12.2075 6.465 10.2275 6.125 8.1875 C3.815 8.5175 1.505 8.8475 -0.875 9.1875 C-0.545 10.8375 -0.215 12.4875 0.125 14.1875 C-0.865 14.5175 -1.855 14.8475 -2.875 15.1875 C-3.91376383 12.07120851 -4.00861625 9.8280571 -4 6.5625 C-4.00257813 5.58023438 -4.00515625 4.59796875 -4.0078125 3.5859375 C-3.8136423 0.07945217 -3.55318063 0.23172917 0 0 Z " fill="#CFBD8E" transform="translate(143.875,234.8125)"/>
<path d="M0 0 C1.32 0.33 2.64 0.66 4 1 C4 1.66 4 2.32 4 3 C4.63808594 3.19335938 5.27617187 3.38671875 5.93359375 3.5859375 C6.75988281 3.84632812 7.58617187 4.10671875 8.4375 4.375 C9.26121094 4.63023438 10.08492187 4.88546875 10.93359375 5.1484375 C13 6 13 6 14 8 C12.68 7.67 11.36 7.34 10 7 C9.93048592 18.12661357 9.8771815 29.25317546 9.84456348 40.37996197 C9.82890838 45.5465989 9.80767278 50.71308725 9.77368164 55.87963867 C9.74108289 60.86576104 9.72314582 65.85174049 9.71536827 70.8379612 C9.70982571 72.7401638 9.69900245 74.64235859 9.68280983 76.54450035 C9.66102874 79.20911938 9.65803336 81.87314805 9.65942383 84.5378418 C9.64324509 85.7171225 9.64324509 85.7171225 9.6267395 86.92022705 C9.65241738 91.46859753 10.25355794 94.33901249 13 98 C11.0625 97.1875 11.0625 97.1875 9 96 C8.67 95.01 8.34 94.02 8 93 C6.02 92.67 4.04 92.34 2 92 C3.98 91.505 3.98 91.505 6 91 C5.98514574 79.83857546 5.94364533 68.677601 5.86790943 57.51641369 C5.83358563 52.33404413 5.80852109 47.15197105 5.80444336 41.96948242 C5.80017195 36.9701237 5.77180576 31.97143438 5.72656822 26.97228432 C5.71355608 25.06290902 5.70929863 23.15345376 5.71384621 21.24403954 C5.71872596 18.57365581 5.69277876 15.90524852 5.65942383 13.23510742 C5.66804947 12.44172974 5.67667511 11.64835205 5.68556213 10.83093262 C5.69018117 8.37423857 5.69018117 8.37423857 5 5 C2.5790021 3.05921437 2.5790021 3.05921437 0 2 C0 1.34 0 0.68 0 0 Z " fill="#FBE6A5" transform="translate(216,11)"/>
<path d="M0 0 C3.96 0 7.92 0 12 0 C11.01 0.33 10.02 0.66 9 1 C9 4.3 9 7.6 9 11 C11.64 11 14.28 11 17 11 C16.88590407 9.54077307 16.75834456 8.08259402 16.625 6.625 C16.55539063 5.81289062 16.48578125 5.00078125 16.4140625 4.1640625 C16.17107412 1.79665809 16.17107412 1.79665809 14 0 C17.96 0 21.92 0 26 0 C25.01 0.66 24.02 1.32 23 2 C22.55224397 4.09178942 22.55224397 4.09178942 22.63671875 6.5 C22.63736328 7.386875 22.63800781 8.27375 22.63867188 9.1875 C22.65478516 10.115625 22.67089844 11.04375 22.6875 12 C22.68427734 12.928125 22.68105469 13.85625 22.67773438 14.8125 C22.41300163 19.93612656 22.41300163 19.93612656 25 24 C21.37 24 17.74 24 14 24 C14.66 23.34 15.32 22.68 16 22 C16.46162427 19.56747339 16.46162427 19.56747339 16.625 16.875 C16.69976562 15.96492187 16.77453125 15.05484375 16.8515625 14.1171875 C16.90054688 13.41851562 16.94953125 12.71984375 17 12 C14.36 12 11.72 12 9 12 C9 15.63 9 19.26 9 23 C9.99 23.33 10.98 23.66 12 24 C8.04 24 4.08 24 0 24 C0.99 23.67 1.98 23.34 3 23 C3 15.74 3 8.48 3 1 C2.01 0.67 1.02 0.34 0 0 Z " fill="#101010" transform="translate(211,208)"/>
<path d="M0 0 C1.32 0.66 2.64 1.32 4 2 C3.01 2.495 3.01 2.495 2 3 C1.34 2.67 0.68 2.34 0 2 C0 31.04 0 60.08 0 90 C-0.66 90 -1.32 90 -2 90 C-2.33 108.81 -2.66 127.62 -3 147 C-3.33 147 -3.66 147 -4 147 C-4 117.63 -4 88.26 -4 58 C-7.3 58.99 -10.6 59.98 -14 61 C-10.09090909 57.09090909 -10.09090909 57.09090909 -7 56 C-5.32495386 56.28828687 -3.65605441 56.61741317 -2 57 C-2.00523682 56.12077881 -2.01047363 55.24155762 -2.01586914 54.33569336 C-2.16873939 24.64596918 -2.16873939 24.64596918 -1.5625 10.5 C-1.52326416 9.54085693 -1.48402832 8.58171387 -1.44360352 7.59350586 C-1.13039735 1.13039735 -1.13039735 1.13039735 0 0 Z " fill="#F9E7B2" transform="translate(212,8)"/>
<path d="M0 0 C5.94 0 11.88 0 18 0 C18 0.66 18 1.32 18 2 C16.68 2.33 15.36 2.66 14 3 C13.67 13.23 13.34 23.46 13 34 C10.36 34 7.72 34 5 34 C5 23.77 5 13.54 5 3 C3.35 2.67 1.7 2.34 0 2 C0 1.34 0 0.68 0 0 Z " fill="#101010" transform="translate(194,165)"/>
<path d="M0 0 C2.02045442 0.60183749 4.02111039 1.27306096 6 2 C6.33 2.66 6.66 3.32 7 4 C4.03 3.505 4.03 3.505 1 3 C1.084349 13.62251174 1.17921123 24.24487244 1.28752708 34.86716843 C1.33749053 39.79943779 1.38382063 44.73168573 1.421875 49.6640625 C1.4587271 54.42334127 1.50508697 59.18244082 1.55806351 63.94156647 C1.57660783 65.75801706 1.59171566 67.57450607 1.60334396 69.3910141 C1.62020572 71.93371464 1.6492405 74.47600472 1.68115234 77.01855469 C1.68331253 77.77093414 1.68547272 78.5233136 1.68769836 79.29849243 C1.71644063 84.49996324 1.71644063 84.49996324 4 89 C5.32 89.33 6.64 89.66 8 90 C8 61.62 8 33.24 8 4 C8.33 4 8.66 4 9 4 C9 33.04 9 62.08 9 92 C3 91 3 91 0.65437317 88.95292664 C-1.46244576 85.17457051 -1.54061938 81.96860067 -1.4699707 77.75317383 C-1.4721611 76.93635635 -1.4743515 76.11953888 -1.47660828 75.27796936 C-1.47891355 72.58724015 -1.452701 69.89761391 -1.42578125 67.20703125 C-1.42085662 65.33567146 -1.41755821 63.46430674 -1.41581726 61.59294128 C-1.4081842 57.67646487 -1.38764109 53.76035481 -1.35668945 49.84399414 C-1.31703306 44.81660364 -1.29906681 39.78945099 -1.28938007 34.76192188 C-1.2794227 29.97275929 -1.25952763 25.1836551 -1.23828125 20.39453125 C-1.23318763 19.01870849 -1.23318763 19.01870849 -1.2279911 17.61509132 C-1.21645038 15.0295371 -1.19793667 12.44413572 -1.17700195 9.85864258 C-1.17431305 9.08822632 -1.17162415 8.31781006 -1.16885376 7.52404785 C-1.11491518 2.22983037 -1.11491518 2.22983037 0 0 Z " fill="#DA9F46" transform="translate(226,18)"/>
<path d="M0 0 C3.41192821 0.25750402 6.29122159 0.69104531 9.4375 2.0625 C11.57790266 4.71659929 11.398932 6.73639038 11.3359375 10.0625 C11 12 11 12 9 15 C8.34 15 7.68 15 7 15 C7 15.66 7 16.32 7 17 C6.34 17 5.68 17 5 17 C5.90901174 18.5877405 6.82757924 20.17001197 7.75 21.75 C8.26046875 22.63171875 8.7709375 23.5134375 9.296875 24.421875 C10.92207914 27.06913055 10.92207914 27.06913055 13.203125 29.203125 C15 31 15 31 15 33 C11.36074389 33.97563036 8.61233576 34.16005904 5 33 C1.72276923 29.87234771 -0.58001502 25.97724728 -2.96875 22.16015625 C-4.64149768 18.9665043 -4.64149768 18.9665043 -7 18 C-7 17.34 -7 16.68 -7 16 C-5.329375 15.814375 -5.329375 15.814375 -3.625 15.625 C0.03103677 15.3534187 0.03103677 15.3534187 2 13 C2.35639561 10.89582032 2.35639561 10.89582032 2.3125 8.5625 C2.32925781 7.78003906 2.34601563 6.99757812 2.36328125 6.19140625 C1.92353251 3.53872837 1.04371546 2.677033 -1 1 C-0.67 0.67 -0.34 0.34 0 0 Z " fill="#171717" transform="translate(309,166)"/>
<path d="M0 0 C4.62 0 9.24 0 14 0 C13.01 0.66 12.02 1.32 11 2 C10.48745872 5.2001106 10.48745872 5.2001106 10.48828125 8.9765625 C10.47033005 9.66181 10.45237885 10.3470575 10.43388367 11.05307007 C10.37966292 13.24365059 10.34584947 15.4340119 10.3125 17.625 C10.27933706 19.10940559 10.24484835 20.59378221 10.20898438 22.078125 C10.12393185 25.71853912 10.05717644 29.35902944 10 33 C10.66 33.33 11.32 33.66 12 34 C8.37 34 4.74 34 1 34 C1.33 24.1 1.66 14.2 2 4 C1.34 4 0.68 4 0 4 C0 2.68 0 1.36 0 0 Z " fill="#0C0C0C" transform="translate(40,166)"/>
<path d="M0 0 C0.78052734 -0.00773438 1.56105469 -0.01546875 2.36523438 -0.0234375 C8.18414502 -0.00335498 8.18414502 -0.00335498 10.4375 2.25 C10.4375 4.91666667 10.4375 7.58333333 10.4375 10.25 C11.0975 10.91 11.7575 11.57 12.4375 12.25 C12.4375 13.24 12.4375 14.23 12.4375 15.25 C11.1175 14.92 9.7975 14.59 8.4375 14.25 C8.4375 13.59 8.4375 12.93 8.4375 12.25 C7.880625 12.600625 7.32375 12.95125 6.75 13.3125 C3.88371501 14.47450743 2.39118983 13.94955812 -0.5625 13.25 C-1.5525 13.745 -1.5525 13.745 -2.5625 14.25 C-7.94189805 14.70782111 -7.94189805 14.70782111 -10.23046875 13.01953125 C-11.91784215 10.77794724 -11.96500129 9.46971411 -11.9375 6.6875 C-11.94523437 5.90246094 -11.95296875 5.11742187 -11.9609375 4.30859375 C-11.82945313 3.62925781 -11.69796875 2.94992188 -11.5625 2.25 C-7.69957629 -0.32528248 -4.47303122 -0.04454471 0 0 Z " fill="#FDFAE8" transform="translate(50.5625,234.75)"/>
<path d="M0 0 C0.33 0 0.66 0 1 0 C1 4.95 1 9.9 1 15 C3.97 15.495 3.97 15.495 7 16 C9.875 17.5625 9.875 17.5625 12 19 C11.01 19.33 10.02 19.66 9 20 C7.02 19.01 5.04 18.02 3 17 C3 37.79 3 58.58 3 80 C9.703125 79.855625 16.40625 79.71125 23.3125 79.5625 C25.42567627 79.51939697 27.53885254 79.47629395 29.71606445 79.43188477 C31.39014515 79.39376034 33.06421804 79.35529108 34.73828125 79.31640625 C35.60819702 79.29993042 36.47811279 79.28345459 37.37438965 79.26647949 C38.20643921 79.24629761 39.03848877 79.22611572 39.89575195 79.20532227 C40.61745071 79.18977798 41.33914948 79.1742337 42.0827179 79.15821838 C44.22108144 79.05804743 44.22108144 79.05804743 47 78 C49.1875 78.9375 49.1875 78.9375 51 80 C49.401833 81.598167 47.72473502 81.12730981 45.51196289 81.12939453 C44.08026512 81.13412277 44.08026512 81.13412277 42.61964417 81.13894653 C41.58113815 81.1369223 40.54263214 81.13489807 39.47265625 81.1328125 C37.88377846 81.13424759 37.88377846 81.13424759 36.26280212 81.13571167 C34.01740459 81.1363937 31.7720051 81.13453784 29.52661133 81.13037109 C26.080847 81.12502845 22.63521334 81.13031262 19.18945312 81.13671875 C17.01302054 81.13605787 14.83658805 81.1347765 12.66015625 81.1328125 C11.62367447 81.13483673 10.58719269 81.13686096 9.51930237 81.13894653 C8.56168503 81.13579437 7.60406769 81.13264221 6.61743164 81.12939453 C5.77217422 81.12859894 4.92691681 81.12780334 4.05604553 81.12698364 C2 81 2 81 0 80 C0 53.6 0 27.2 0 0 Z " fill="#F8DB9A" transform="translate(300,76)"/>
<path d="M0 0 C0.66 1.32 1.32 2.64 2 4 C3.32 4 4.64 4 6 4 C4.87204037 8.10899581 3.66489182 12.07561214 2 16 C1.34 16 0.68 16 0 16 C-0.66 18.31 -1.32 20.62 -2 23 C-3.98 27.95 -5.96 32.9 -8 38 C2.89 38 13.78 38 25 38 C25 38.33 25 38.66 25 39 C13.45 39 1.9 39 -10 39 C-10.66 37.35 -11.32 35.7 -12 34 C-12.99 34.66 -13.98 35.32 -15 36 C-13.20050286 30.07224471 -10.97179779 24.42276621 -8.5 18.75 C-8.20343506 18.06486328 -7.90687012 17.37972656 -7.60131836 16.67382812 C-5.95552544 12.94063257 -4.1274815 9.48857917 -2 6 C-1.28856912 4.01548229 -0.61008664 2.01797888 0 0 Z " fill="#222222" transform="translate(78,154)"/>
<path d="M0 0 C6 2 6 2 10 4 C10 11.26 10 18.52 10 26 C2 30 2 30 0 30 C0 20.1 0 10.2 0 0 Z " fill="#F59820" transform="translate(264,40)"/>
<path d="M0 0 C3.3 1.65 6.6 3.3 10 5 C7 6 7 6 3 5 C3 19.19 3 33.38 3 48 C5.475 47.505 5.475 47.505 8 47 C4.25 50 4.25 50 2 50 C1.67 75.74 1.34 101.48 1 128 C-2.63 128 -6.26 128 -10 128 C-10 127.67 -10 127.34 -10 127 C-6.7 127 -3.4 127 0 127 C0 85.09 0 43.18 0 0 Z " fill="#F7D496" transform="translate(248,29)"/>
<path d="M0 0 C1.98 0.495 1.98 0.495 4 1 C4 29.05 4 57.1 4 86 C3.01 86 2.02 86 1 86 C1 58.28 1 30.56 1 2 C0.34 1.67 -0.32 1.34 -1 1 C-0.67 0.67 -0.34 0.34 0 0 Z " fill="#FAE4A9" transform="translate(193,70)"/>
<path d="M0 0 C0.33 0.66 0.66 1.32 1 2 C1.66 2 2.32 2 3 2 C3 29.39 3 56.78 3 85 C2.01 85 1.02 85 0 85 C0 56.95 0 28.9 0 0 Z " fill="#FEF3BC" transform="translate(287,71)"/>
<path d="M0 0 C7.75 -0.125 7.75 -0.125 10 1 C10.66 0.67 11.32 0.34 12 0 C16.05142119 -0.25860135 17.54337669 -0.30441554 21 2 C21.36328125 4.3125 21.36328125 4.3125 21.3125 7 C21.30863281 7.886875 21.30476563 8.77375 21.30078125 9.6875 C21 12 21 12 19 14 C17.125 14.30078125 17.125 14.30078125 15 14.3125 C14.29875 14.32925781 13.5975 14.34601563 12.875 14.36328125 C12.25625 14.24339844 11.6375 14.12351563 11 14 C9 11 9 11 9 8 C7.35 8 5.7 8 4 8 C4 8.66 4 9.32 4 10 C3.34 10 2.68 10 2 10 C1.67 11.65 1.34 13.3 1 15 C0.67 15 0.34 15 0 15 C0 10.05 0 5.1 0 0 Z " fill="#DCCEA8" transform="translate(217,235)"/>
<path d="M0 0 C6.27 0 12.54 0 19 0 C19 2.31 19 4.62 19 7 C18.649375 6.360625 18.29875 5.72125 17.9375 5.0625 C15.22815794 2.17836168 12.84141089 2.2899178 9 2 C9 4.97 9 7.94 9 11 C12.16666667 9.16666667 12.16666667 9.16666667 14 6 C14 9.96 14 13.92 14 18 C13.34 16.68 12.68 15.36 12 14 C11.01 13.67 10.02 13.34 9 13 C9 16.3 9 19.6 9 23 C14.93482007 22.01684135 14.93482007 22.01684135 19.5 18.375 C20.2425 17.199375 20.2425 17.199375 21 16 C20.67 18.64 20.34 21.28 20 24 C13.4 24 6.8 24 0 24 C0.99 23.67 1.98 23.34 3 23 C3 15.74 3 8.48 3 1 C2.01 0.67 1.02 0.34 0 0 Z " fill="#0D0D0D" transform="translate(275,208)"/>
<path d="M0 0 C3 3 3 3 3.36076355 6.17008972 C3.35410172 7.47802994 3.34743988 8.78597015 3.34057617 10.13354492 C3.34101425 10.85574722 3.34145233 11.57794952 3.34190369 12.32203674 C3.33981414 14.70845605 3.31647613 17.09417223 3.29296875 19.48046875 C3.28737336 21.13527543 3.283103 22.79008708 3.28010559 24.44490051 C3.26865224 28.79993414 3.23918098 33.15466751 3.20599365 37.50958252 C3.17530326 41.95361265 3.16160247 46.39769131 3.14648438 50.84179688 C3.11431162 59.56133569 3.06310952 68.28063049 3 77 C2.01 76.67 1.02 76.34 0 76 C0 50.92 0 25.84 0 0 Z " fill="#F49720" transform="translate(294,76)"/>
<path d="M0 0 C3.3 0 6.6 0 10 0 C10 0.66 10 1.32 10 2 C7.36 2 4.72 2 2 2 C2 3.32 2 4.64 2 6 C6.05035094 5.75232479 6.05035094 5.75232479 10 5 C11.45219377 3.09831644 11.45219377 3.09831644 12 1 C14.70879335 -0.35439668 17.00933268 -0.06501451 20 0 C20.33 0.99 20.66 1.98 21 3 C18.69 2.67 16.38 2.34 14 2 C14 2.99 14 3.98 14 5 C16.31 5.66 18.62 6.32 21 7 C21 8.98 21 10.96 21 13 C18.65147472 14.17426264 17.26225935 14.11508173 14.6484375 14.09765625 C13.79765625 14.09443359 12.946875 14.09121094 12.0703125 14.08789062 C11.18085938 14.07951172 10.29140625 14.07113281 9.375 14.0625 C8.02921875 14.05573242 8.02921875 14.05573242 6.65625 14.04882812 C4.43747169 14.03702611 2.21872757 14.01909039 0 14 C0 9.38 0 4.76 0 0 Z " fill="#FBF7D9" transform="translate(186,235)"/>
<path d="M0 0 C3.37619502 0.84404875 6.6984852 1.89949507 10 3 C10 20.49 10 37.98 10 56 C9.67 56 9.34 56 9 56 C9 39.17 9 22.34 9 5 C6.36 4.34 3.72 3.68 1 3 C1 22.47 1 41.94 1 62 C8.92 62 16.84 62 25 62 C25 61.34 25 60.68 25 60 C23.35 60 21.7 60 20 60 C19.67 59.34 19.34 58.68 19 58 C22.62682976 58.44455614 26.25100166 58.90796676 29.875 59.375 C31.42380859 59.56449219 31.42380859 59.56449219 33.00390625 59.7578125 C33.99003906 59.88671875 34.97617187 60.015625 35.9921875 60.1484375 C37.35899658 60.32125244 37.35899658 60.32125244 38.75341797 60.49755859 C41 61 41 61 43 63 C28.81 63 14.62 63 0 63 C0 42.21 0 21.42 0 0 Z " fill="#D9A04A" transform="translate(303,93)"/>
<path d="M0 0 C6 1 6 1 8 2 C8 2.66 8 3.32 8 4 C8.99 4.33 9.98 4.66 11 5 C11 33.71 11 62.42 11 92 C7.37 92 3.74 92 0 92 C0 61.64 0 31.28 0 0 Z M1 1 C1 30.7 1 60.4 1 91 C3.97 91 6.94 91 10 91 C10 63.28 10 35.56 10 7 C9.01 6.67 8.02 6.34 7 6 C6.67 5.01 6.34 4.02 6 3 C3.525 2.01 3.525 2.01 1 1 Z " fill="#E4BB74" transform="translate(276,65)"/>
<path d="M0 0 C2.475 0.99 2.475 0.99 5 2 C3.68 2.33 2.36 2.66 1 3 C1 31.05 1 59.1 1 88 C2.98 88 4.96 88 7 88 C7 60.61 7 33.22 7 5 C7.66 5.33 8.32 5.66 9 6 C9 33.72 9 61.44 9 90 C6.03 90 3.06 90 0 90 C0 60.3 0 30.6 0 0 Z " fill="#DA9C44" transform="translate(277,66)"/>
<path d="M0 0 C0.12246094 0.56847656 0.24492187 1.13695312 0.37109375 1.72265625 C1.03574212 4.12942643 1.97656042 6.19166796 3.0625 8.4375 C4.5889881 11.77703714 5.48192681 14.2650672 5 18 C5.66 18.33 6.32 18.66 7 19 C2.71 19 -1.58 19 -6 19 C-6.33 21.64 -6.66 24.28 -7 27 C-5.68 27 -4.36 27 -3 27 C-3 27.66 -3 28.32 -3 29 C-10.59 29 -18.18 29 -26 29 C-26 28.67 -26 28.34 -26 28 C-25.04738281 27.97164062 -24.09476562 27.94328125 -23.11328125 27.9140625 C-15.86941965 27.61792832 -15.86941965 27.61792832 -10.0625 23.88671875 C-8.80311176 21.29316609 -7.85612783 18.75124575 -7 16 C-6.484375 14.824375 -5.96875 13.64875 -5.4375 12.4375 C-4.963125 11.303125 -4.48875 10.16875 -4 9 C-2.67651826 5.99559985 -1.33902064 2.99750306 0 0 Z " fill="#555555" transform="translate(340,171)"/>
<path d="M0 0 C1.65 0 3.3 0 5 0 C7.46715791 3.77126965 7.26909153 7.54540805 7.22705078 11.88964844 C7.22734283 12.68027176 7.22763489 13.47089508 7.22793579 14.28547668 C7.22654467 16.8935552 7.21099379 19.50134651 7.1953125 22.109375 C7.19158159 23.91969649 7.18873499 25.73002 7.18673706 27.54034424 C7.17910672 32.30134675 7.15946334 37.06222692 7.1373291 41.82318115 C7.1168578 46.68288518 7.10773259 51.54260901 7.09765625 56.40234375 C7.07621691 65.93494953 7.04208815 75.46746459 7 85 C2.25 86.125 2.25 86.125 0 85 C0 56.95 0 28.9 0 0 Z M1 1 C1 28.39 1 55.78 1 84 C2.98 83.505 2.98 83.505 5 83 C6.18163386 79.26672308 6.13378129 75.7133184 6.14526367 71.81640625 C6.14862228 71.10048309 6.1519809 70.38455994 6.15544128 69.64694214 C6.16492382 67.28544368 6.16689285 64.9240163 6.16796875 62.5625 C6.17118254 60.91870088 6.1745467 59.27490204 6.17805481 57.63110352 C6.18403884 54.18798153 6.18589539 50.74488463 6.18530273 47.30175781 C6.185201 42.88993319 6.19886808 38.47826909 6.21607494 34.06648254 C6.22719117 30.67272197 6.22922208 27.27900031 6.22869301 23.88522339 C6.22987312 22.25852911 6.23429666 20.63183382 6.24202538 19.00515747 C6.25182035 16.73118814 6.24894961 14.45756869 6.24291992 12.18359375 C6.24434494 10.88993896 6.24576996 9.59628418 6.24723816 8.26342773 C6.01679799 5.22172565 5.613385 3.54097952 4 1 C3.01 1 2.02 1 1 1 Z " fill="#EB9A32" transform="translate(278,69)"/>
<path d="M0 0 C2.64 0 5.28 0 8 0 C8 0.99 8 1.98 8 3 C6.68 3 5.36 3 4 3 C4 3.66 4 4.32 4 5 C5.32 5 6.64 5 8 5 C8 5.99 8 6.98 8 8 C6.02 8 4.04 8 2 8 C2 9.32 2 10.64 2 12 C4.31 12 6.62 12 9 12 C9.24234375 11.21753906 9.4846875 10.43507812 9.734375 9.62890625 C10.06953125 8.61699219 10.4046875 7.60507813 10.75 6.5625 C11.07484375 5.55316406 11.3996875 4.54382813 11.734375 3.50390625 C13 1 13 1 15.140625 0.15234375 C15.75421875 0.10207031 16.3678125 0.05179688 17 0 C17.50757862 1.41396902 18.00574925 2.83131729 18.5 4.25 C18.7784375 5.03890625 19.056875 5.8278125 19.34375 6.640625 C20 9 20 9 20 13 C17.36 12.34 14.72 11.68 12 11 C12 11.99 12 12.98 12 14 C7.34462607 14.83796731 3.62921525 15.0161692 -1 14 C-1.93402724 8.58264203 -2.20808081 5.19548425 0 0 Z " fill="#CFBF9A" transform="translate(65,235)"/>
<path d="M0 0 C1.08667969 0.02707031 2.17335938 0.05414063 3.29296875 0.08203125 C4.54013672 0.13423828 4.54013672 0.13423828 5.8125 0.1875 C5.8125 2.8275 5.8125 5.4675 5.8125 8.1875 C3.8125 7.1875 3.8125 7.1875 2.5 4.625 C1.943125 3.820625 1.38625 3.01625 0.8125 2.1875 C-1.81444422 1.76969121 -1.81444422 1.76969121 -4.1875 2.1875 C-4.30963894 4.52898231 -4.30963894 4.52898231 -3.1875 7.1875 C-1.24394679 8.69108402 0.75691399 9.87885226 2.90234375 11.07421875 C4.8125 12.1875 4.8125 12.1875 6.8125 14.1875 C7.27242944 17.71362573 7.34277414 19.47962208 5.1796875 22.3671875 C2.11793556 24.72160401 0.37615798 24.60331122 -3.4375 24.4375 C-4.51515625 24.40140625 -5.5928125 24.3653125 -6.703125 24.328125 C-7.93289063 24.25851563 -7.93289063 24.25851563 -9.1875 24.1875 C-9.1875 21.5475 -9.1875 18.9075 -9.1875 16.1875 C-8.548125 16.991875 -7.90875 17.79625 -7.25 18.625 C-5.78146498 20.4625504 -5.78146498 20.4625504 -4.1875 22.1875 C-2.18791636 22.22830783 -0.18704746 22.23004356 1.8125 22.1875 C1.50758914 18.98049111 1.28164106 17.58717209 -1.21875 15.45703125 C-2.44078125 14.73580078 -2.44078125 14.73580078 -3.6875 14 C-8.10614407 11.35021186 -8.10614407 11.35021186 -9.1875 9.1875 C-9.64074446 3.86187757 -9.64074446 3.86187757 -8.05859375 1.5078125 C-5.35400438 -0.40064513 -3.26706804 -0.10538929 0 0 Z " fill="#0E0E0E" transform="translate(356.1875,207.8125)"/>
<path d="M0 0 C0.86367188 -0.00257813 1.72734375 -0.00515625 2.6171875 -0.0078125 C4.93165971 0.11476079 6.90789116 0.47533555 9.125 1.125 C9.125 3.105 9.125 5.085 9.125 7.125 C8.8775 6.1659375 8.8775 6.1659375 8.625 5.1875 C6.83426086 2.72523369 6.16491156 2.63971487 3.25 2.125 C0.24605874 1.6681268 -0.60436076 1.92782675 -3.10546875 3.75 C-5.33398277 6.74102985 -5.38182707 8.42755626 -5.3125 12.125 C-5.31121094 13.15625 -5.30992187 14.1875 -5.30859375 15.25 C-4.82750859 18.43989801 -4.14250714 19.85749286 -1.875 22.125 C2.75732775 22.82991944 5.35102907 21.78897948 9.125 19.125 C7.375 23 7.375 23 5.125 24.125 C-0.38998995 24.74665748 -4.51083608 25.18904786 -9 21.6875 C-9.61875 20.841875 -10.2375 19.99625 -10.875 19.125 C-11.205 18.795 -11.535 18.465 -11.875 18.125 C-12.39763424 13.74233856 -12.89871348 9.10748992 -10.828125 5.09765625 C-7.40477725 0.97957028 -5.17435544 -0.01535417 0 0 Z " fill="#0F0F0F" transform="translate(310.875,207.875)"/>
<path d="M0 0 C0.86367187 -0.00257813 1.72734375 -0.00515625 2.6171875 -0.0078125 C4.93165971 0.11476079 6.90789116 0.47533555 9.125 1.125 C9.125 3.105 9.125 5.085 9.125 7.125 C8.8775 6.1659375 8.8775 6.1659375 8.625 5.1875 C6.83426086 2.72523369 6.16491156 2.63971487 3.25 2.125 C0.24605874 1.6681268 -0.60436076 1.92782675 -3.10546875 3.75 C-5.33398277 6.74102985 -5.38182707 8.42755626 -5.3125 12.125 C-5.31121094 13.15625 -5.30992187 14.1875 -5.30859375 15.25 C-4.82750859 18.43989801 -4.14250714 19.85749286 -1.875 22.125 C2.75732775 22.82991944 5.35102907 21.78897948 9.125 19.125 C7.375 23 7.375 23 5.125 24.125 C-0.38998995 24.74665748 -4.51083608 25.18904786 -9 21.6875 C-9.61875 20.841875 -10.2375 19.99625 -10.875 19.125 C-11.205 18.795 -11.535 18.465 -11.875 18.125 C-12.39763424 13.74233856 -12.89871348 9.10748992 -10.828125 5.09765625 C-7.40477725 0.97957028 -5.17435544 -0.01535417 0 0 Z " fill="#0F0F0F" transform="translate(198.875,207.875)"/>
<path d="M0 0 C6.93 0 13.86 0 21 0 C21 1.98 21 3.96 21 6 C20.79375 5.360625 20.5875 4.72125 20.375 4.0625 C19.11365555 1.64576118 19.11365555 1.64576118 15.9140625 1.37109375 C14.47160156 1.18740234 14.47160156 1.18740234 13 1 C13.0806251 4.45930693 13.19348464 7.91681775 13.3125 11.375 C13.33505859 12.35984375 13.35761719 13.3446875 13.38085938 14.359375 C13.41630859 15.30039063 13.45175781 16.24140625 13.48828125 17.2109375 C13.51446533 18.08024902 13.54064941 18.94956055 13.56762695 19.84521484 C13.81345218 22.38600027 13.81345218 22.38600027 17 24 C13.04 24 9.08 24 5 24 C5.66 23.34 6.32 22.68 7 22 C7.37004294 19.77341846 7.37004294 19.77341846 7.4140625 17.2109375 C7.47207031 15.79941406 7.47207031 15.79941406 7.53125 14.359375 C7.57765625 12.88210937 7.57765625 12.88210937 7.625 11.375 C7.66367187 10.38242188 7.70234375 9.38984375 7.7421875 8.3671875 C7.8366314 5.91164615 7.92219875 3.4561159 8 1 C4.11664917 2.41097199 2.23919006 3.46443675 0 7 C0 4.69 0 2.38 0 0 Z " fill="#040404" transform="translate(323,208)"/>
<path d="M0 0 C6.93 0 13.86 0 21 0 C21 1.98 21 3.96 21 6 C20.79375 5.360625 20.5875 4.72125 20.375 4.0625 C19.11365555 1.64576118 19.11365555 1.64576118 15.9140625 1.37109375 C14.47160156 1.18740234 14.47160156 1.18740234 13 1 C13.0806251 4.45930693 13.19348464 7.91681775 13.3125 11.375 C13.33505859 12.35984375 13.35761719 13.3446875 13.38085938 14.359375 C13.41630859 15.30039063 13.45175781 16.24140625 13.48828125 17.2109375 C13.51446533 18.08024902 13.54064941 18.94956055 13.56762695 19.84521484 C13.81345218 22.38600027 13.81345218 22.38600027 17 24 C13.04 24 9.08 24 5 24 C5.66 23.34 6.32 22.68 7 22 C7.37004294 19.77341846 7.37004294 19.77341846 7.4140625 17.2109375 C7.47207031 15.79941406 7.47207031 15.79941406 7.53125 14.359375 C7.57765625 12.88210937 7.57765625 12.88210937 7.625 11.375 C7.66367187 10.38242188 7.70234375 9.38984375 7.7421875 8.3671875 C7.8366314 5.91164615 7.92219875 3.4561159 8 1 C4.64405806 2.2632842 2.36709704 3.25915079 0 6 C0 4.02 0 2.04 0 0 Z " fill="#040404" transform="translate(252,208)"/>
<path d="M0 0 C3.96 0 7.92 0 12 0 C11.01 0.33 10.02 0.66 9 1 C9 8.26 9 15.52 9 23 C9.99 23.33 10.98 23.66 12 24 C8.04 24 4.08 24 0 24 C0.99 23.67 1.98 23.34 3 23 C3 15.74 3 8.48 3 1 C2.01 0.67 1.02 0.34 0 0 Z " fill="#131313" transform="translate(238,208)"/>
<path d="M0 0 C3 2 3 2 3.6640625 3.859375 C4.78775394 11.0196414 4.32855172 15.5318138 0.09375 21.56640625 C-0.2671875 22.03949219 -0.628125 22.51257813 -1 23 C-2.32 22.67 -3.64 22.34 -5 22 C-5.11044961 15.26257354 -4.70132913 8.70019789 -4 2 C-3.34 2.33 -2.68 2.66 -2 3 C-1.34 2.01 -0.68 1.02 0 0 Z " fill="#0A0A0A" transform="translate(247,173)"/>
<path d="M0 0 C2.48927108 2.48927108 2.26596375 3.2876435 2.31884766 6.72509766 C2.33871735 7.70596344 2.35858704 8.68682922 2.37905884 9.69741821 C2.39061005 10.75891083 2.40216125 11.82040344 2.4140625 12.9140625 C2.43342865 13.99883881 2.4527948 15.08361511 2.4727478 16.20126343 C2.53266426 19.67576159 2.57897739 23.15029267 2.625 26.625 C2.66316865 28.97657718 2.70221971 31.32814021 2.7421875 33.6796875 C2.83837559 39.4529997 2.92338753 45.22639666 3 51 C6.37728385 52.17250917 9.62999084 53.22858967 13.1640625 53.78125 C13.89367187 53.90113281 14.62328125 54.02101562 15.375 54.14453125 C16.88262273 54.3827147 18.39043809 54.6196819 19.8984375 54.85546875 C23.57114117 55.46107414 26.7995602 56.0357089 30 58 C23.67078372 57.49997876 17.36229285 56.85064889 11.0625 56.0625 C9.19271484 55.83240234 9.19271484 55.83240234 7.28515625 55.59765625 C4 55 4 55 0 53 C0 35.51 0 18.02 0 0 Z " fill="#F5DBA5" transform="translate(313,96)"/>
<path d="M0 0 C0.66 0.33 1.32 0.66 2 1 C1.67 3.31 1.34 5.62 1 8 C1.66 8 2.32 8 3 8 C3.33 7.34 3.66 6.68 4 6 C6 8 6 8 6.1953125 11.2578125 C6.17210937 12.53398437 6.14890625 13.81015625 6.125 15.125 C6.10695313 16.40632813 6.08890625 17.68765625 6.0703125 19.0078125 C6.04710937 19.99523437 6.02390625 20.98265625 6 22 C7.65 22 9.3 22 11 22 C11 22.66 11 23.32 11 24 C5.39 24 -0.22 24 -6 24 C-6 23.34 -6 22.68 -6 22 C-4.35 21.67 -2.7 21.34 -1 21 C-1.01160156 20.154375 -1.02320313 19.30875 -1.03515625 18.4375 C-1.08489687 12.18439382 -0.96940246 6.17994069 0 0 Z " fill="#191919" transform="translate(295,176)"/>
<path d="M0 0 C3.125 0.1875 3.125 0.1875 6.125 2.1875 C7.115 1.5275 8.105 0.8675 9.125 0.1875 C10.125 1.1875 10.125 1.1875 10.22265625 3.47265625 C10.21105469 4.38917969 10.19945312 5.30570313 10.1875 6.25 C10.17847656 7.16910156 10.16945312 8.08820313 10.16015625 9.03515625 C10.14855469 9.74542969 10.13695312 10.45570313 10.125 11.1875 C13.75385324 11.33899298 13.75385324 11.33899298 17.125 10.1875 C17.125 11.1775 17.125 12.1675 17.125 13.1875 C15.10677083 13.15494792 13.08854167 13.12239583 11.0703125 13.08984375 C9.04314596 13.06100758 9.04314596 13.06100758 7.125 14.1875 C6.795 12.2075 6.465 10.2275 6.125 8.1875 C3.815 8.5175 1.505 8.8475 -0.875 9.1875 C-0.545 10.8375 -0.215 12.4875 0.125 14.1875 C-0.865 14.5175 -1.855 14.8475 -2.875 15.1875 C-3.91376383 12.07120851 -4.00861625 9.8280571 -4 6.5625 C-4.00257813 5.58023438 -4.00515625 4.59796875 -4.0078125 3.5859375 C-3.8136423 0.07945217 -3.55318063 0.23172917 0 0 Z " fill="#D8C99C" transform="translate(143.875,234.8125)"/>
<path d="M0 0 C4.29 0 8.58 0 13 0 C13 0.33 13 0.66 13 1 C11.35 1 9.7 1 8 1 C8 4.63 8 8.26 8 12 C8.99 12.33 9.98 12.66 11 13 C10.01 13 9.02 13 8 13 C8.11409593 14.45922693 8.24165544 15.91740598 8.375 17.375 C8.44460937 18.18710938 8.51421875 18.99921875 8.5859375 19.8359375 C8.82892588 22.20334191 8.82892588 22.20334191 11 24 C7.37 24 3.74 24 0 24 C0.66 23.34 1.32 22.68 2 22 C2.37004294 19.77341846 2.37004294 19.77341846 2.4140625 17.2109375 C2.45273438 16.26992187 2.49140625 15.32890625 2.53125 14.359375 C2.5621875 13.37453125 2.593125 12.3896875 2.625 11.375 C2.66367188 10.38242188 2.70234375 9.38984375 2.7421875 8.3671875 C2.8366314 5.91164615 2.92219875 3.4561159 3 1 C2.01 0.67 1.02 0.34 0 0 Z " fill="#030303" transform="translate(161,208)"/>
<path d="M0 0 C3.96 0 7.92 0 12 0 C11.01 0.66 10.02 1.32 9 2 C8.55224397 4.09178942 8.55224397 4.09178942 8.63671875 6.5 C8.63736328 7.386875 8.63800781 8.27375 8.63867188 9.1875 C8.65478516 10.115625 8.67089844 11.04375 8.6875 12 C8.68427734 12.928125 8.68105469 13.85625 8.67773438 14.8125 C8.41300163 19.93612656 8.41300163 19.93612656 11 24 C7.37 24 3.74 24 0 24 C0.66 23.34 1.32 22.68 2 22 C2.30984531 19.90186619 2.30984531 19.90186619 2.265625 17.5 C2.26820313 16.613125 2.27078125 15.72625 2.2734375 14.8125 C2.26570312 13.884375 2.25796875 12.95625 2.25 12 C2.26160156 10.6078125 2.26160156 10.6078125 2.2734375 9.1875 C2.27085937 8.300625 2.26828125 7.41375 2.265625 6.5 C2.26336914 5.6853125 2.26111328 4.870625 2.25878906 4.03125 C2.18174293 1.77369549 2.18174293 1.77369549 0 0 Z " fill="#060606" transform="translate(225,208)"/>
<path d="M0 0 C6.0546875 -0.1953125 6.0546875 -0.1953125 8 0 C10.41486943 2.41486943 10.2961925 3.12707789 10.3125 6.4375 C10.32925781 7.21996094 10.34601563 8.00242188 10.36328125 8.80859375 C10 11 10 11 8.91796875 12.78515625 C7 14 7 14 0 14 C0 9.38 0 4.76 0 0 Z " fill="#ECECEC" transform="translate(302,168)"/>
<path d="M0 0 C1.32 0.33 2.64 0.66 4 1 C3.01 1.495 3.01 1.495 2 2 C1.67 20.15 1.34 38.3 1 57 C4.3 57 7.6 57 11 57 C11 56.34 11 55.68 11 55 C10.34 55 9.68 55 9 55 C9.33 54.34 9.66 53.68 10 53 C14.62 54.32 19.24 55.64 24 57 C24 57.66 24 58.32 24 59 C16.08 59 8.16 59 0 59 C0 39.53 0 20.06 0 0 Z " fill="#E79B32" transform="translate(304,96)"/>
<path d="M0 0 C1.32 0 2.64 0 4 0 C4 26.4 4 52.8 4 80 C-3.26 80 -10.52 80 -18 80 C-18.66 79.34 -19.32 78.68 -20 78 C-18.33657163 76.33657163 -16.2174291 76.63951903 -13.9375 76.4375 C-13.01839844 76.35371094 -12.09929687 76.26992187 -11.15234375 76.18359375 C-10.44207031 76.12300781 -9.73179687 76.06242187 -9 76 C-9.495 76.99 -9.495 76.99 -10 78 C-5.71 78.33 -1.42 78.66 3 79 C3 53.26 3 27.52 3 1 C1.68 1.33 0.36 1.66 -1 2 C-0.67 1.34 -0.34 0.68 0 0 Z " fill="#E59A35" transform="translate(189,75)"/>
<path d="M0 0 C3.3 1.65 6.6 3.3 10 5 C7 6 7 6 3 5 C3 19.19 3 33.38 3 48 C5.475 47.505 5.475 47.505 8 47 C4.25 50 4.25 50 2 50 C1.67 51.32 1.34 52.64 1 54 C0.67 36.18 0.34 18.36 0 0 Z " fill="#FAE1A1" transform="translate(248,29)"/>
<path d="M0 0 C3.41192821 0.25750402 6.29122159 0.69104531 9.4375 2.0625 C11.49828958 4.61787908 11.55709299 6.83234289 11.390625 10.0546875 C11 12 11 12 9.25 14.5625 C7 16 7 16 4.8125 15.875 C3 15 3 15 2 13 C2.00864083 10.72314088 2.13048722 8.46453697 2.2578125 6.19140625 C1.9395163 3.48588856 1.07171959 2.68666176 -1 1 C-0.67 0.67 -0.34 0.34 0 0 Z " fill="#121212" transform="translate(309,166)"/>
<path d="M0 0 C2.31 0.33 4.62 0.66 7 1 C7.33 1.66 7.66 2.32 8 3 C5.69 2.67 3.38 2.34 1 2 C1 14.21 1 26.42 1 39 C3.64 38.34 6.28 37.68 9 37 C9 26.11 9 15.22 9 4 C9.33 4 9.66 4 10 4 C10.12375079 8.7687841 10.21440646 13.53663077 10.2746582 18.30664062 C10.29977772 19.92855105 10.33388028 21.55034854 10.37719727 23.171875 C10.43796853 25.50549171 10.46623294 27.83761048 10.48828125 30.171875 C10.51408768 30.89493835 10.5398941 31.61800171 10.56648254 32.36297607 C10.56852699 36.04636139 10.30148552 37.67014133 7.78198242 40.42675781 C5 42 5 42 0 43 C0 28.81 0 14.62 0 0 Z " fill="#DBA757" transform="translate(251,34)"/>
<path d="M0 0 C1.79296875 2.171875 1.79296875 2.171875 3 4 C2.67 4.66 2.34 5.32 2 6 C1.34 5.67 0.68 5.34 0 5 C-0.66 6.65 -1.32 8.3 -2 10 C-2.33 10 -2.66 10 -3 10 C-3.33 12.31 -3.66 14.62 -4 17 C-4.33 17 -4.66 17 -5 17 C-5.04898438 16.10796875 -5.09796875 15.2159375 -5.1484375 14.296875 C-5.22320312 13.12640625 -5.29796875 11.9559375 -5.375 10.75 C-5.44460937 9.58984375 -5.51421875 8.4296875 -5.5859375 7.234375 C-5.96893898 4.24262759 -6.21587255 2.40914026 -8 0 C-9.96370628 -0.91618629 -9.96370628 -0.91618629 -12.25 -1.25 C-13.04792969 -1.39695313 -13.84585938 -1.54390625 -14.66796875 -1.6953125 C-17.46808226 -2.06115648 -20.18052427 -2.1445885 -23 -2 C-22 -4 -22 -4 -20.4375 -4.625 C-12.35792366 -5.86801174 -6.83049199 -4.61027879 0 0 Z " fill="#343434" transform="translate(247,169)"/>
<path d="M0 0 C3.375 -0.125 3.375 -0.125 7 0 C10.00527647 3.00527647 9 5.88870455 9 10 C9.66 10.66 10.32 11.32 11 12 C11 12.99 11 13.98 11 15 C9.125 14.75 9.125 14.75 7 14 C6.30062468 12.68352881 5.63270867 11.34977849 5 10 C4.01 9.67 3.02 9.34 2 9 C2 10.32 2 11.64 2 13 C1.34 13 0.68 13 0 13 C0 8.71 0 4.42 0 0 Z " fill="#D7CAA6" transform="translate(52,235)"/>
<path d="M0 0 C5.94 0 11.88 0 18 0 C18 0.66 18 1.32 18 2 C17.34 2 16.68 2 16 2 C16 5.63 16 9.26 16 13 C16.66 13.33 17.32 13.66 18 14 C16.35 14 14.7 14 13 14 C13 10.04 13 6.08 13 2 C11.02 2 9.04 2 7 2 C7 5.96 7 9.92 7 14 C6.34 14 5.68 14 5 14 C4.34 10.7 3.68 7.4 3 4 C2.01 3.67 1.02 3.34 0 3 C0 2.01 0 1.02 0 0 Z " fill="#D4C5A0" transform="translate(86,235)"/>
<path d="M0 0 C0.66 0 1.32 0 2 0 C2 4.29 2 8.58 2 13 C-1.4120992 12.1469752 -4.67485327 11.13357275 -8 10 C-9.125 4.25 -9.125 4.25 -8 2 C-5.36 2 -2.72 2 0 2 C0 1.34 0 0.68 0 0 Z " fill="#FAF2D3" transform="translate(184,236)"/>
<path d="M0 0 C2.02045442 0.60183749 4.02111039 1.27306096 6 2 C6.33 2.66 6.66 3.32 7 4 C5.02 4 3.04 4 1 4 C0.67 31.06 0.34 58.12 0 86 C-0.33 86 -0.66 86 -1 86 C-1.02313538 75.08230602 -1.04092121 64.16461784 -1.05181217 53.24690437 C-1.05703837 48.17777772 -1.06413128 43.1086678 -1.07543945 38.03955078 C-1.08627763 33.15071319 -1.09227882 28.26189173 -1.09487724 23.37304306 C-1.09672981 21.50466533 -1.10034721 19.63628852 -1.10573006 17.76791763 C-1.11295281 15.15792154 -1.11399041 12.54799271 -1.11352539 9.93798828 C-1.11712067 9.1597168 -1.12071594 8.38144531 -1.12442017 7.57958984 C-1.11405216 2.22810432 -1.11405216 2.22810432 0 0 Z " fill="#DEB261" transform="translate(226,18)"/>
<path d="M0 0 C2.31 0 4.62 0 7 0 C9 2 9 2 9.125 4.625 C9.08375 5.40875 9.0425 6.1925 9 7 C8.34 7 7.68 7 7 7 C7.75150023 10.27773504 7.75150023 10.27773504 11 12 C10.67 12.99 10.34 13.98 10 15 C9.236875 14.195625 8.47375 13.39125 7.6875 12.5625 C5.20569102 9.83200976 5.20569102 9.83200976 2 9 C2 10.65 2 12.3 2 14 C1.34 14 0.68 14 0 14 C0 9.38 0 4.76 0 0 Z " fill="#CDBA8C" transform="translate(241,235)"/>
<path d="M0 0 C0.66 0.33 1.32 0.66 2 1 C1.35125916 1.35544388 0.70251831 1.71088776 0.03411865 2.07710266 C-2.29186265 3.89086384 -2.29186265 3.89086384 -2.51898193 7.01823425 C-2.52786438 8.2551149 -2.53674683 9.49199554 -2.54589844 10.76635742 C-2.55623611 11.44954544 -2.56657379 12.13273346 -2.57722473 12.83662415 C-2.60670549 15.09314476 -2.6081529 17.34877051 -2.609375 19.60546875 C-2.62435323 21.17061581 -2.64107963 22.73574703 -2.65948486 24.30085754 C-2.70321138 28.41902381 -2.72316898 32.53697687 -2.73822021 36.65533447 C-2.75777239 40.85824214 -2.79974442 45.0609189 -2.83984375 49.26367188 C-2.91520314 57.50905425 -2.96545963 65.7543461 -3 74 C-7.87621156 75.48686403 -11.88778661 76.20866177 -17 76 C-17 75.67 -17 75.34 -17 75 C-11.06 74.01 -11.06 74.01 -5 73 C-4.99635437 72.1296965 -4.99270874 71.25939301 -4.98895264 70.36271667 C-4.95110809 62.16652961 -4.89429608 53.9707419 -4.81609726 45.77483654 C-4.77656394 41.56105667 -4.74440448 37.34748759 -4.72900391 33.13354492 C-4.71387545 29.06787508 -4.67949902 25.00278454 -4.63169098 20.93737221 C-4.61683756 19.38526757 -4.60895672 17.83308025 -4.60811615 16.28090477 C-4.60575643 14.1087585 -4.57876213 11.93822627 -4.54589844 9.76635742 C-4.53257477 7.91103645 -4.53257477 7.91103645 -4.51898193 6.01823425 C-4 3 -4 3 -1.96588135 1.07710266 C-0.99277008 0.54393684 -0.99277008 0.54393684 0 0 Z " fill="#FBDBA1" transform="translate(186,74)"/>
<path d="M0 0 C3.125 0.25 3.125 0.25 5.0625 1.4375 C6.125 3.25 6.125 3.25 5.875 5.875 C5.125 8.25 5.125 8.25 4.125 9.25 C2.45882885 9.29063832 0.79111905 9.292721 -0.875 9.25 C-0.875 10.9 -0.875 12.55 -0.875 14.25 C-1.865 14.25 -2.855 14.25 -3.875 14.25 C-3.90185938 12.10423363 -3.92133088 9.95837355 -3.9375 7.8125 C-3.94910156 6.61753906 -3.96070313 5.42257813 -3.97265625 4.19140625 C-3.8445987 0.33431293 -3.8445987 0.33431293 0 0 Z " fill="#D7C89E" transform="translate(262.875,234.75)"/>
<path d="M0 0 C0.33 0.99 0.66 1.98 1 3 C-1.31 3 -3.62 3 -6 3 C-6.33 5.31 -6.66 7.62 -7 10 C-4.03 10.495 -4.03 10.495 -1 11 C-1 10.34 -1 9.68 -1 9 C-1.99 9 -2.98 9 -4 9 C-4 8.34 -4 7.68 -4 7 C-2.02 7 -0.04 7 2 7 C2.1875 9.875 2.1875 9.875 2 13 C-1 15 -1 15 -4.5625 14.875 C-8 14 -8 14 -9.4375 12.375 C-10.36638913 8.45302366 -10.93357267 4.70239722 -8.9375 1.0625 C-5.98831309 -0.55479605 -3.29132441 -0.18630138 0 0 Z " fill="#C8B994" transform="translate(130,235)"/>
<path d="M0 0 C1.875 0 1.875 0 4 1 C5.75 4.5625 5.75 4.5625 7 8 C7.33 6.02 7.66 4.04 8 2 C8.66 2 9.32 2 10 2 C10 5.63 10 9.26 10 13 C8.68 12.67 7.36 12.34 6 12 C5.67 10.35 5.34 8.7 5 7 C4.34 7 3.68 7 3 7 C2.67 9.31 2.34 11.62 2 14 C1.01 14 0.02 14 -1 14 C-1.02685938 11.85423363 -1.04633088 9.70837355 -1.0625 7.5625 C-1.07410156 6.36753906 -1.08570312 5.17257813 -1.09765625 3.94140625 C-1 1 -1 1 0 0 Z " fill="#DAC597" transform="translate(107,235)"/>
<path d="M0 0 C0.33 0.99 0.66 1.98 1 3 C-1.64 3 -4.28 3 -7 3 C-7 5.64 -7 8.28 -7 11 C-4.36 11.33 -1.72 11.66 1 12 C-1 14 -1 14 -4.4375 14.25 C-8 14 -8 14 -11 12 C-11 12.66 -11 13.32 -11 14 C-11.99 13.67 -12.98 13.34 -14 13 C-13.34 13 -12.68 13 -12 13 C-12 11.68 -12 10.36 -12 9 C-12.66 9 -13.32 9 -14 9 C-13.67 7.68 -13.34 6.36 -13 5 C-13 5.66 -13 6.32 -13 7 C-12.01 7 -11.02 7 -10 7 C-9.814375 5.5459375 -9.814375 5.5459375 -9.625 4.0625 C-9.41875 3.051875 -9.2125 2.04125 -9 1 C-6.04335481 -0.4783226 -3.25770263 -0.06032783 0 0 Z " fill="#CCBA98" transform="translate(183,235)"/>
<path d="M0 0 C6 2 6 2 10 4 C10 11.26 10 18.52 10 26 C2 30 2 30 0 30 C0 20.1 0 10.2 0 0 Z M1 3 C1 10.92 1 18.84 1 27 C7.4 26.8 7.4 26.8 9 25 C9.33189614 21.8852177 9.32480728 18.75520026 9.375 15.625 C9.41238281 14.7484375 9.44976562 13.871875 9.48828125 12.96875 C9.52160259 10.54739946 9.49143585 8.37201238 9 6 C6.15413422 3.43967259 4.81157613 3 1 3 Z " fill="#D89E49" transform="translate(264,40)"/>
<path d="M0 0 C5 1 5 1 8 3 C8.34057617 4.97119141 8.34057617 4.97119141 8.29296875 7.3515625 C8.28330078 8.20234375 8.27363281 9.053125 8.26367188 9.9296875 C8.23853516 10.81914063 8.21339844 11.70859375 8.1875 12.625 C8.17396484 13.5221875 8.16042969 14.419375 8.14648438 15.34375 C8.11106925 17.56309789 8.06168461 19.78125188 8 22 C4.91190305 23.76462683 3.76687864 24 0 24 C0 16.08 0 8.16 0 0 Z M3 2 C2.01 2.495 2.01 2.495 1 3 C1 9.6 1 16.2 1 23 C2.65 22.67 4.3 22.34 6 22 C6 16.06 6 10.12 6 4 C5.34 4 4.68 4 4 4 C3.67 3.34 3.34 2.68 3 2 Z " fill="#EA9A31" transform="translate(265,43)"/>
<path d="M0 0 C0.99 0 1.98 0 3 0 C3.50757862 1.41396902 4.00574925 2.83131729 4.5 4.25 C4.7784375 5.03890625 5.056875 5.8278125 5.34375 6.640625 C6 9 6 9 6 13 C1.545 12.01 1.545 12.01 -3 11 C-2.25 3.375 -2.25 3.375 0 0 Z " fill="#CFBE8B" transform="translate(79,235)"/>
<path d="M0 0 C0 0.99 0 1.98 0 3 C0.33 3.66 0.66 4.32 1 5 C1 7.31 1 9.62 1 12 C11.89 12 22.78 12 34 12 C34 12.33 34 12.66 34 13 C22.45 13 10.9 13 -1 13 C-1.66 11.35 -2.32 9.7 -3 8 C-3.99 8.66 -4.98 9.32 -6 10 C-4.79157144 5.56909529 -3.48331435 3.01887244 0 0 Z " fill="#303030" transform="translate(69,180)"/>
<path d="M0 0 C3.3 0 6.6 0 10 0 C10 0.66 10 1.32 10 2 C7.36 2 4.72 2 2 2 C2 3.32 2 4.64 2 6 C4.31 6 6.62 6 9 6 C9 6.66 9 7.32 9 8 C7.02 8 5.04 8 3 8 C3 9.32 3 10.64 3 12 C4.98 12 6.96 12 9 12 C9 12.66 9 13.32 9 14 C6.03 14 3.06 14 0 14 C0 9.38 0 4.76 0 0 Z " fill="#D0BD91" transform="translate(186,235)"/>
<path d="M0 0 C0.66 0 1.32 0 2 0 C1.67 0.99 1.34 1.98 1 3 C0.88211998 5.19215453 0.82308063 7.38762575 0.79467773 9.58276367 C0.78477814 10.24644455 0.77487854 10.91012543 0.76467896 11.59391785 C0.7331191 13.78523199 0.70832845 15.97656781 0.68359375 18.16796875 C0.66301945 19.68826355 0.64202285 21.20855269 0.62062073 22.72883606 C0.56544916 26.72858087 0.51601825 30.72837689 0.46777344 34.72821045 C0.4175225 38.81038974 0.36185519 42.89249474 0.30664062 46.97460938 C0.19911918 54.9830101 0.09766089 62.99147299 0 71 C-0.33 71 -0.66 71 -1 71 C-1.02312545 61.89040835 -1.04091612 52.78082674 -1.05181217 43.6712122 C-1.05704056 39.44168629 -1.0641374 35.2121804 -1.07543945 30.98266602 C-1.08626991 26.90431457 -1.09227717 22.82598243 -1.09487724 18.74761772 C-1.09673121 17.18822361 -1.10035127 15.6288306 -1.10573006 14.06944466 C-1.11294262 11.89270838 -1.11399085 9.71605286 -1.11352539 7.53930664 C-1.115746 6.29798477 -1.11796661 5.0566629 -1.12025452 3.77772522 C-1 1 -1 1 0 0 Z " fill="#DDA657" transform="translate(184,77)"/>
<path d="M0 0 C6.92307692 4.46153846 6.92307692 4.46153846 9 7 C9 7.66 9 8.32 9 9 C3.72 9 -1.56 9 -7 9 C-5.68 8.34 -4.36 7.68 -3 7 C-3 6.01 -3 5.02 -3 4 C-2.34 4 -1.68 4 -1 4 C-0.67 2.68 -0.34 1.36 0 0 Z " fill="#2C2C2C" transform="translate(353,191)"/>
<path d="M0 0 C5.875 0.875 5.875 0.875 7 2 C7.1875 5.4375 7.1875 5.4375 7 9 C6.34 9.66 5.68 10.32 5 11 C3.35 11 1.7 11 0 11 C0 7.37 0 3.74 0 0 Z " fill="#E8E8E8" transform="translate(169,209)"/>
<path d="M0 0 C0.33 0.99 0.66 1.98 1 3 C-1.31 2.67 -3.62 2.34 -6 2 C-6 2.99 -6 3.98 -6 5 C-3.69 5.66 -1.38 6.32 1 7 C1 8.98 1 10.96 1 13 C-1.70879335 14.35439668 -4.00933268 14.06501451 -7 14 C-7.33 13.34 -7.66 12.68 -8 12 C-5.69 12 -3.38 12 -1 12 C-1 11.01 -1 10.02 -1 9 C-3.31 8.34 -5.62 7.68 -8 7 C-8.6875 5.1875 -8.6875 5.1875 -9 3 C-6.75886401 -0.69128281 -4.00118708 -0.26674581 0 0 Z " fill="#CCBE9B" transform="translate(206,235)"/>
<path d="M0 0 C0.66 0 1.32 0 2 0 C1.67 3.96 1.34 7.92 1 12 C-9.23 12 -19.46 12 -30 12 C-30 11.34 -30 10.68 -30 10 C-20.1 10.33 -10.2 10.66 0 11 C-0.33 10.01 -0.66 9.02 -1 8 C-2.32 8.33 -3.64 8.66 -5 9 C-3.35 6.03 -1.7 3.06 0 0 Z " fill="#6E6E6E" transform="translate(169,188)"/>
<path d="M0 0 C0 0.99 0 1.98 0 3 C-2.31 3 -4.62 3 -7 3 C-7.04241723 5.33294775 -7.04092937 7.66702567 -7 10 C-5.81575674 11.41577477 -5.81575674 11.41577477 -2.4375 11.0625 C-0.7359375 11.0315625 -0.7359375 11.0315625 1 11 C1 11.66 1 12.32 1 13 C-1.79870027 14.39935013 -3.90498792 14.25265405 -7 14 C-9.18142406 12.39075274 -9.90962124 11.49708319 -10.3984375 8.80859375 C-10.39070313 8.02613281 -10.38296875 7.24367187 -10.375 6.4375 C-10.38273437 5.65246094 -10.39046875 4.86742187 -10.3984375 4.05859375 C-10.26695313 3.37925781 -10.13546875 2.69992188 -10 2 C-6.3558226 -0.4294516 -4.28758728 -0.16179575 0 0 Z " fill="#C8BA94" transform="translate(49,235)"/>
<path d="M0 0 C0.99 1.32 1.98 2.64 3 4 C0.09426115 7.10613463 -1.76770946 8.8261078 -6.15625 9.16796875 C-7.31640625 9.17763672 -7.31640625 9.17763672 -8.5 9.1875 C-9.66015625 9.20876953 -9.66015625 9.20876953 -10.84375 9.23046875 C-13 9 -13 9 -16 7 C-15.01 7 -14.02 7 -13 7 C-13.33 6.01 -13.66 5.02 -14 4 C-13.34 4 -12.68 4 -12 4 C-12 4.66 -12 5.32 -12 6 C-5.87460497 5.19618592 -5.87460497 5.19618592 -0.9375 1.875 C-0.628125 1.25625 -0.31875 0.6375 0 0 Z " fill="#242424" transform="translate(241,192)"/>
<path d="M0 0 C1.8871875 0.0309375 1.8871875 0.0309375 3.8125 0.0625 C3.8125 0.3925 3.8125 0.7225 3.8125 1.0625 C2.13220703 1.35253906 2.13220703 1.35253906 0.41796875 1.6484375 C-1.05475349 1.9110886 -2.52740619 2.17412983 -4 2.4375 C-4.73798828 2.56382812 -5.47597656 2.69015625 -6.23632812 2.8203125 C-9.79344646 3.46413482 -12.14244084 4.03246056 -15.1875 6.0625 C-17.78995498 6.20471065 -20.27867684 6.25052932 -22.875 6.1875 C-23.9278418 6.17396484 -23.9278418 6.17396484 -25.00195312 6.16015625 C-26.73061525 6.13663704 -28.45910145 6.10076713 -30.1875 6.0625 C-27.22856269 4.08987512 -26.0154473 3.70561364 -22.625 3.24609375 C-21.74585938 3.12169922 -20.86671875 2.99730469 -19.9609375 2.86914062 C-19.04570312 2.74732422 -18.13046875 2.62550781 -17.1875 2.5 C-15.37467466 2.25105568 -13.56215817 1.99984904 -11.75 1.74609375 C-10.94691406 1.63837646 -10.14382812 1.53065918 -9.31640625 1.41967773 C-0.77854968 -0.01276311 -0.77854968 -0.01276311 0 0 Z " fill="#D3AC6A" transform="translate(172.1875,149.9375)"/>
<path d="M0 0 C3.62682976 0.44455614 7.25100166 0.90796676 10.875 1.375 C11.90753906 1.50132812 12.94007813 1.62765625 14.00390625 1.7578125 C14.99003906 1.88671875 15.97617187 2.015625 16.9921875 2.1484375 C17.90339355 2.26364746 18.81459961 2.37885742 19.75341797 2.49755859 C22 3 22 3 24 5 C16.74 5 9.48 5 2 5 C3.32 4.67 4.64 4.34 6 4 C6 3.34 6 2.68 6 2 C4.35 2 2.7 2 1 2 C0.67 1.34 0.34 0.68 0 0 Z " fill="#D3A765" transform="translate(322,151)"/>
<path d="M0 0 C4.875 0.875 4.875 0.875 6 2 C6.04092937 4.33297433 6.04241723 6.66705225 6 9 C3.69 9 1.38 9 -1 9 C-1.125 2.25 -1.125 2.25 0 0 Z " fill="#FCF6DB" transform="translate(285,237)"/>
<path d="M0 0 C1.99954746 -0.04254356 4.00041636 -0.04080783 6 0 C7 1 7 1 7.1875 3.9375 C7 7 7 7 5 9 C2.375 8.625 2.375 8.625 0 8 C0 5.36 0 2.72 0 0 Z " fill="#FBF8DD" transform="translate(229,238)"/>
<path d="M0 0 C0.66 0 1.32 0 2 0 C4.03435531 3.72965139 5 5.66905042 5 10 C2.03 10 -0.94 10 -4 10 C-3.52449439 8.51965236 -3.04448784 7.04074979 -2.5625 5.5625 C-2.29566406 4.73878906 -2.02882813 3.91507813 -1.75390625 3.06640625 C-1 1 -1 1 0 0 Z " fill="#D9D9D9" transform="translate(340,178)"/>
<path d="M0 0 C0.99 0.33 1.98 0.66 3 1 C3 1.66 3 2.32 3 3 C3.66 3 4.32 3 5 3 C5.5805813 6.0101878 6.04348662 8.92875755 6 12 C4.25 14.125 4.25 14.125 2 15 C1.01 14.67 0.02 14.34 -1 14 C-0.01 13.67 0.98 13.34 2 13 C2 9.37 2 5.74 2 2 C1.34 2 0.68 2 0 2 C0 4.31 0 6.62 0 9 C-1.5 7.625 -1.5 7.625 -3 6 C-3 5.34 -3 4.68 -3 4 C-2.34 4 -1.68 4 -1 4 C-0.67 2.68 -0.34 1.36 0 0 Z " fill="#F5E9BE" transform="translate(115,235)"/>
<path d="M0 0 C0.99 0.33 1.98 0.66 3 1 C3 4.3 3 7.6 3 11 C4.65 11.33 6.3 11.66 8 12 C8 12.66 8 13.32 8 14 C5.36 14 2.72 14 0 14 C0 9.38 0 4.76 0 0 Z " fill="#D5C9A0" transform="translate(307,235)"/>
<path d="M0 0 C0.66 0.33 1.32 0.66 2 1 C2 4.3 2 7.6 2 11 C6.627322 11.372678 6.627322 11.372678 9 10 C9 10.99 9 11.98 9 13 C6.98177083 12.96744792 4.96354167 12.93489583 2.9453125 12.90234375 C0.91814596 12.87350758 0.91814596 12.87350758 -1 14 C-3.55214724 5.86503067 -3.55214724 5.86503067 -3 2 C-2.01 1.34 -1.02 0.68 0 0 Z " fill="#EBE0BB" transform="translate(152,235)"/>
<path d="M0 0 C0.33 0.66 0.66 1.32 1 2 C-3.33420699 4.03165952 -7.28596212 4.52060632 -12 5 C-11.67 5.66 -11.34 6.32 -11 7 C-14.96 7 -18.92 7 -23 7 C-22 5 -22 5 -20.1796875 4.3671875 C-15.33738332 3.3330683 -10.95047466 2.7893415 -6 3 C-6 2.34 -6 1.68 -6 1 C-4.02 0.67 -2.04 0.34 0 0 Z " fill="#E09B3F" transform="translate(182,148)"/>
<path d="M0 0 C0.99 0.66 1.98 1.32 3 2 C2.125 6.875 2.125 6.875 1 8 C-0.66617115 8.04063832 -2.33388095 8.042721 -4 8 C-4 9.32 -4 10.64 -4 12 C-4.66 12 -5.32 12 -6 12 C-6 8.37 -6 4.74 -6 1 C-5.67 1 -5.34 1 -5 1 C-5 2.65 -5 4.3 -5 6 C-3.35 6 -1.7 6 0 6 C-0.2784375 4.7934375 -0.2784375 4.7934375 -0.5625 3.5625 C-0.706875 2.716875 -0.85125 1.87125 -1 1 C-0.67 0.67 -0.34 0.34 0 0 Z " fill="#C9B689" transform="translate(266,236)"/>
<path d="M0 0 C0.99 0 1.98 0 3 0 C3 3.96 3 7.92 3 12 C3.66 12 4.32 12 5 12 C5 10.68 5 9.36 5 8 C6.32 8.33 7.64 8.66 9 9 C8.67 9.99 8.34 10.98 8 12 C6.02 12.33 4.04 12.66 2 13 C1.67 11.35 1.34 9.7 1 8 C0.67 8 0.34 8 0 8 C-1.125 2.25 -1.125 2.25 0 0 Z " fill="#F3E8C0" transform="translate(49,236)"/>
<path d="M0 0 C1.134375 0.020625 2.26875 0.04125 3.4375 0.0625 C3.4375 0.3925 3.4375 0.7225 3.4375 1.0625 C1.4575 1.0625 -0.5225 1.0625 -2.5625 1.0625 C-2.5625 2.3825 -2.5625 3.7025 -2.5625 5.0625 C-0.5825 5.0625 1.3975 5.0625 3.4375 5.0625 C3.4375 5.3925 3.4375 5.7225 3.4375 6.0625 C1.4575 6.0625 -0.5225 6.0625 -2.5625 6.0625 C-2.5625 8.0425 -2.5625 10.0225 -2.5625 12.0625 C-0.5825 12.0625 1.3975 12.0625 3.4375 12.0625 C3.4375 12.3925 3.4375 12.7225 3.4375 13.0625 C1.10455225 13.10491723 -1.22952567 13.10342937 -3.5625 13.0625 C-4.5625 12.0625 -4.5625 12.0625 -4.6953125 9.59375 C-4.69273437 8.5934375 -4.69015625 7.593125 -4.6875 6.5625 C-4.69007813 5.5621875 -4.69265625 4.561875 -4.6953125 3.53125 C-4.48464445 -0.38469719 -4.07842371 0.07155129 0 0 Z " fill="#C2B48B" transform="translate(321.5625,235.9375)"/>
<path d="M0 0 C0.87823436 2.46129375 1.09761018 3.6936874 0.29296875 6.21875 C-0.07183594 6.9715625 -0.43664063 7.724375 -0.8125 8.5 C-1.16957031 9.2528125 -1.52664062 10.005625 -1.89453125 10.78125 C-2.25933594 11.5134375 -2.62414063 12.245625 -3 13 C-3.31324219 13.7321875 -3.62648438 14.464375 -3.94921875 15.21875 C-5 17 -5 17 -8 18 C-6.50297208 14.24002289 -4.98096019 10.49116321 -3.4375 6.75 C-3.00308594 5.69296875 -2.56867187 4.6359375 -2.12109375 3.546875 C-1 1 -1 1 0 0 Z " fill="#464646" transform="translate(39,171)"/>
<path d="M0 0 C2.64 0 5.28 0 8 0 C8 0.99 8 1.98 8 3 C6.68 3 5.36 3 4 3 C4 3.66 4 4.32 4 5 C5.32 5 6.64 5 8 5 C8 5.99 8 6.98 8 8 C6.02 8 4.04 8 2 8 C1.67 9.32 1.34 10.64 1 12 C1.01160156 11.30132812 1.02320312 10.60265625 1.03515625 9.8828125 C1.04417969 8.97273437 1.05320312 8.06265625 1.0625 7.125 C1.07410156 6.22007812 1.08570312 5.31515625 1.09765625 4.3828125 C1.16249257 1.9831415 1.16249257 1.9831415 0 0 Z " fill="#EADDB9" transform="translate(65,235)"/>
<path d="M0 0 C3.63 0 7.26 0 11 0 C11 0.66 11 1.32 11 2 C8.69 2.33 6.38 2.66 4 3 C3.34 4.98 2.68 6.96 2 9 C1.34 9 0.68 9 0 9 C0 6.03 0 3.06 0 0 Z " fill="#303030" transform="translate(255,166)"/>
<path d="M0 0 C1.98 0 3.96 0 6 0 C6.1875 2.875 6.1875 2.875 6 6 C5.01 6.66 4.02 7.32 3 8 C0.00667261 7.0022242 -0.94766315 6.2477975 -3 4 C-1.02 4 0.96 4 3 4 C3 3.34 3 2.68 3 2 C2.01 2 1.02 2 0 2 C0 1.34 0 0.68 0 0 Z " fill="#D8CBAD" transform="translate(126,242)"/>
<path d="M0 0 C2.31 0 4.62 0 7 0 C7 0.33 7 0.66 7 1 C5.02 1 3.04 1 1 1 C1 4.96 1 8.92 1 13 C1.66 13.33 2.32 13.66 3 14 C2.01 14 1.02 14 0 14 C-0.66 13.01 -1.32 12.02 -2 11 C-2.33 11 -2.66 11 -3 11 C-3.25 5.375 -3.25 5.375 -1 2 C-0.67 1.34 -0.34 0.68 0 0 Z " fill="#DED1AF" transform="translate(296,235)"/>
<path d="M0 0 C0.144375 0.598125 0.28875 1.19625 0.4375 1.8125 C0.8872439 3.56150404 1.42892341 5.28677023 2 7 C1.01 7.495 1.01 7.495 0 8 C-0.72693904 9.97888961 -1.39816251 11.97954558 -2 14 C-2.99 13.67 -3.98 13.34 -5 13 C-5.33 13.66 -5.66 14.32 -6 15 C-5.27623543 11.50596417 -3.93714794 8.48001095 -2.4375 5.25 C-1.98246094 4.26515625 -1.52742188 3.2803125 -1.05859375 2.265625 C-0.70925781 1.51796875 -0.35992187 0.7703125 0 0 Z " fill="#616161" transform="translate(340,171)"/>
<path d="M0 0 C0.33 1.32 0.66 2.64 1 4 C-4.28 4 -9.56 4 -15 4 C-15 3.34 -15 2.68 -15 2 C-14.08476562 1.93941406 -13.16953125 1.87882813 -12.2265625 1.81640625 C-10.44378906 1.69072266 -10.44378906 1.69072266 -8.625 1.5625 C-7.44164062 1.48128906 -6.25828125 1.40007812 -5.0390625 1.31640625 C-2.08481099 1.18915064 -2.08481099 1.18915064 0 0 Z " fill="#2A2A2A" transform="translate(168,195)"/>
<path d="M0 0 C1.485 0.99 1.485 0.99 3 2 C3.66 1.67 4.32 1.34 5 1 C5.66 3.31 6.32 5.62 7 8 C4.125 7.6875 4.125 7.6875 1 7 C-1 4 -1 4 -0.625 1.8125 C-0.41875 1.214375 -0.2125 0.61625 0 0 Z " fill="#1C1C1C" transform="translate(221,191)"/>
<path d="M0 0 C0.33 0 0.66 0 1 0 C1.33 7.59 1.66 15.18 2 23 C2.99 23.33 3.98 23.66 5 24 C2.69 24 0.38 24 -2 24 C-1.76228882 23.15743652 -1.76228882 23.15743652 -1.51977539 22.29785156 C-0.97811638 19.90325571 -0.79358526 17.68561447 -0.68359375 15.234375 C-0.64169922 14.34492188 -0.59980469 13.45546875 -0.55664062 12.5390625 C-0.51732422 11.61867187 -0.47800781 10.69828125 -0.4375 9.75 C-0.39431641 8.81414062 -0.35113281 7.87828125 -0.30664062 6.9140625 C-0.2008195 4.60951359 -0.09873443 2.30486161 0 0 Z " fill="#151515" transform="translate(13,176)"/>
<path d="M0 0 C0.66 0 1.32 0 2 0 C2.05399736 1.45792884 2.09279177 2.91642712 2.125 4.375 C2.14820313 5.18710938 2.17140625 5.99921875 2.1953125 6.8359375 C2 9 2 9 0 11 C-3.125 11.125 -3.125 11.125 -6 11 C-6.33 10.34 -6.66 9.68 -7 9 C-5.02 8.34 -3.04 7.68 -1 7 C-0.67 4.69 -0.34 2.38 0 0 Z " fill="#CABD94" transform="translate(236,238)"/>
<path d="M0 0 C0.66 0 1.32 0 2 0 C2 3.63 2 7.26 2 11 C0.68 10.67 -0.64 10.34 -2 10 C-2.66 7.69 -3.32 5.38 -4 3 C-3.01 3.99 -2.02 4.98 -1 6 C-0.67 4.02 -0.34 2.04 0 0 Z " fill="#C9B582" transform="translate(115,237)"/>
<path d="M0 0 C1.65322266 0.01740234 1.65322266 0.01740234 3.33984375 0.03515625 C4.99693359 0.04869141 4.99693359 0.04869141 6.6875 0.0625 C7.54214844 0.07410156 8.39679688 0.08570313 9.27734375 0.09765625 C9.27734375 2.73765625 9.27734375 5.37765625 9.27734375 8.09765625 C7.27734375 7.09765625 7.27734375 7.09765625 5.96484375 4.53515625 C4.51461944 1.83451602 4.51461944 1.83451602 1.71484375 1.59765625 C-1.08128508 1.87334995 -1.08128508 1.87334995 -2.72265625 5.09765625 C-3.28515625 3.16015625 -3.28515625 3.16015625 -3.72265625 1.09765625 C-2.72265625 0.09765625 -2.72265625 0.09765625 0 0 Z " fill="#3E3E3E" transform="translate(352.72265625,207.90234375)"/>
<path d="M0 0 C1.32 0.33 2.64 0.66 4 1 C3.34 1 2.68 1 2 1 C2 2.65 2 4.3 2 6 C3.32 6 4.64 6 6 6 C6 6.66 6 7.32 6 8 C4.68 8 3.36 8 2 8 C2 9.32 2 10.64 2 12 C1.34 12 0.68 12 0 12 C0 8.04 0 4.08 0 0 Z " fill="#C2AF79" transform="translate(52,236)"/>
<path d="M0 0 C0.66 0.33 1.32 0.66 2 1 C1.67 1.99 1.34 2.98 1 4 C1.66 4.33 2.32 4.66 3 5 C2 6 2 6 0.15234375 6.09765625 C-1.8984375 6.06510417 -3.94921875 6.03255208 -6 6 C-6 5.01 -6 4.02 -6 3 C-4.03533587 1.93224776 -2.03144641 0.93446535 0 0 Z " fill="#222321" transform="translate(42,225)"/>
<path d="M0 0 C0.33 0 0.66 0 1 0 C1 3.96 1 7.92 1 12 C0.34 10.68 -0.32 9.36 -1 8 C-1.99 7.67 -2.98 7.34 -4 7 C-4 9.97 -4 12.94 -4 16 C-4.33 16 -4.66 16 -5 16 C-5 12.7 -5 9.4 -5 6 C-4.01 6 -3.02 6 -2 6 C-1.34 4.02 -0.68 2.04 0 0 Z " fill="#373737" transform="translate(288,214)"/>
<path d="M0 0 C2.475 0.99 2.475 0.99 5 2 C5 9.26 5 16.52 5 24 C4.34 23.67 3.68 23.34 3 23 C3.33 16.73 3.66 10.46 4 4 C2.68 3.34 1.36 2.68 0 2 C0 1.34 0 0.68 0 0 Z " fill="#DCA356" transform="translate(269,42)"/>
<path d="M0 0 C5.11365014 1.0681847 10.07227969 2.23107476 15 4 C15 4.66 15 5.32 15 6 C13.02 6 11.04 6 9 6 C9 5.34 9 4.68 9 4 C7.6078125 4.061875 7.6078125 4.061875 6.1875 4.125 C3 4 3 4 0 2 C0 1.34 0 0.68 0 0 Z " fill="#DF9D41" transform="translate(313,149)"/>
<path d="M0 0 C1.58323688 -0.027193 3.16661062 -0.04648306 4.75 -0.0625 C6.07257813 -0.07990234 6.07257813 -0.07990234 7.421875 -0.09765625 C9.7818838 -0.00826198 11.74498524 0.33087179 14 1 C14 2.98 14 4.96 14 7 C13.835 6.360625 13.67 5.72125 13.5 5.0625 C12.22372025 2.86438243 12.22372025 2.86438243 10.19140625 2.4765625 C6.6617715 1.99730934 4.43557638 1.85480787 1 3 C0.67 2.01 0.34 1.02 0 0 Z " fill="#1A1A1A" transform="translate(306,208)"/>
<path d="M0 0 C1.58323688 -0.027193 3.16661062 -0.04648306 4.75 -0.0625 C6.07257813 -0.07990234 6.07257813 -0.07990234 7.421875 -0.09765625 C9.7818838 -0.00826198 11.74498524 0.33087179 14 1 C14 2.98 14 4.96 14 7 C13.835 6.360625 13.67 5.72125 13.5 5.0625 C12.22372025 2.86438243 12.22372025 2.86438243 10.19140625 2.4765625 C6.6617715 1.99730934 4.43557638 1.85480787 1 3 C0.67 2.01 0.34 1.02 0 0 Z " fill="#1B1B1B" transform="translate(194,208)"/>
<path d="M0 0 C0.33 0 0.66 0 1 0 C1 4.29 1 8.58 1 13 C0.67 12.01 0.34 11.02 0 10 C-0.66 10 -1.32 10 -2 10 C-2 7.36 -2 4.72 -2 2 C-1.34 2 -0.68 2 0 2 C0 1.34 0 0.68 0 0 Z " fill="#F9E9BD" transform="translate(240,236)"/>
<path d="M0 0 C0.33 0 0.66 0 1 0 C1 2.97 1 5.94 1 9 C0.34 9 -0.32 9 -1 9 C-1 9.66 -1 10.32 -1 11 C-1.99 10.67 -2.98 10.34 -4 10 C-3.34 10 -2.68 10 -2 10 C-2 8.68 -2 7.36 -2 6 C-2.66 6 -3.32 6 -4 6 C-3.67 4.68 -3.34 3.36 -3 2 C-3 2.66 -3 3.32 -3 4 C-2.01 4 -1.02 4 0 4 C0 2.68 0 1.36 0 0 Z " fill="#ECDEB8" transform="translate(173,238)"/>
<path d="M0 0 C0 1.65 0 3.3 0 5 C-0.99 5.33 -1.98 5.66 -3 6 C-5.1875 4.5625 -5.1875 4.5625 -7 3 C-5.40442685 -0.19114631 -3.35905282 0 0 0 Z " fill="#FBFCF3" transform="translate(184,239)"/>
<path d="M0 0 C0 0.99 0 1.98 0 3 C-2.31 3 -4.62 3 -7 3 C-7.33 3.66 -7.66 4.32 -8 5 C-8.66 4.67 -9.32 4.34 -10 4 C-9.67 3.01 -9.34 2.02 -9 1 C-6.04335481 -0.4783226 -3.25770263 -0.06032783 0 0 Z " fill="#D4CBAA" transform="translate(49,235)"/>
<path d="M0 0 C0.99 0.33 1.98 0.66 3 1 C3.33 2.98 3.66 4.96 4 7 C2 7 0 7 -2 7 C-1.34 4.69 -0.68 2.38 0 0 Z " fill="#353736" transform="translate(343,165)"/>
<path d="M0 0 C3.4120992 0.8530248 6.67485327 1.86642725 10 3 C10 3.66 10 4.32 10 5 C5.545 4.01 5.545 4.01 1 3 C1 5.64 1 8.28 1 11 C0.67 11 0.34 11 0 11 C0 7.37 0 3.74 0 0 Z " fill="#DCA658" transform="translate(303,93)"/>
<path d="M0 0 C0.66 0 1.32 0 2 0 C2 0.66 2 1.32 2 2 C6.455 1.505 6.455 1.505 11 1 C10.67 2.32 10.34 3.64 10 5 C8.5629191 5.05422947 7.12524538 5.09289723 5.6875 5.125 C4.88699219 5.14820313 4.08648437 5.17140625 3.26171875 5.1953125 C1 5 1 5 -2 3 C-1.01 3 -0.02 3 1 3 C0.67 2.01 0.34 1.02 0 0 Z " fill="#7F7F7F" transform="translate(227,196)"/>
<path d="M0 0 C4.29 0 8.58 0 13 0 C13 1.65 13 3.3 13 5 C12.29875 4.505 11.5975 4.01 10.875 3.5 C7.58932694 1.78573579 5.65298142 1.76176208 2 2 C1.01 2 0.02 2 -1 2 C-0.67 1.34 -0.34 0.68 0 0 Z " fill="#090909" transform="translate(272,166)"/>
<path d="M0 0 C0.33 0.99 0.66 1.98 1 3 C-2.3 3 -5.6 3 -9 3 C-9 2.34 -9 1.68 -9 1 C-6.04335481 -0.4783226 -3.25770263 -0.06032783 0 0 Z " fill="#D6CBA8" transform="translate(183,235)"/>
<path d="M0 0 C2.475 0.495 2.475 0.495 5 1 C5 1.66 5 2.32 5 3 C5.99 3.33 6.98 3.66 8 4 C8 7.63 8 11.26 8 15 C7.67 15 7.34 15 7 15 C6.99742187 14.40832031 6.99484375 13.81664063 6.9921875 13.20703125 C6.83991807 8.40689616 6.83991807 8.40689616 4.59765625 4.32421875 C3.11920156 3.14493371 1.56324353 2.06433602 0 1 C0 0.67 0 0.34 0 0 Z " fill="#EBC68A" transform="translate(279,66)"/>
<path d="M0 0 C1.65 0.33 3.3 0.66 5 1 C5 1.99 5 2.98 5 4 C3.576875 4.2165625 3.576875 4.2165625 2.125 4.4375 C-0.8934494 4.82935399 -0.8934494 4.82935399 -3 6 C-2.67 4.68 -2.34 3.36 -2 2 C-1.34 2 -0.68 2 0 2 C0 1.34 0 0.68 0 0 Z " fill="#F5EAC9" transform="translate(200,243)"/>
<path d="M0 0 C0.99 0.33 1.98 0.66 3 1 C2.814375 1.598125 2.62875 2.19625 2.4375 2.8125 C1.77906313 5.16408762 1.77906313 5.16408762 3 8 C3.99 8.33 4.98 8.66 6 9 C3.625 9.125 3.625 9.125 1 9 C0.34 8.34 -0.32 7.68 -1 7 C-0.625 3.375 -0.625 3.375 0 0 Z " fill="#FCF5D6" transform="translate(42,238)"/>
<path d="M0 0 C0.66 0 1.32 0 2 0 C2.3125 2.8125 2.3125 2.8125 2 6 C-0.375 7.9375 -0.375 7.9375 -3 9 C-3.66 8.67 -4.32 8.34 -5 8 C-4.21718695 6.66144944 -3.42348123 5.32926356 -2.625 4 C-2.18414062 3.2575 -1.74328125 2.515 -1.2890625 1.75 C-0.86367187 1.1725 -0.43828125 0.595 0 0 Z " fill="#565656" transform="translate(169,188)"/>
<path d="M0 0 C1.98 0 3.96 0 6 0 C5.67 1.65 5.34 3.3 5 5 C4.34 5 3.68 5 3 5 C3 6.65 3 8.3 3 10 C2.67 10 2.34 10 2 10 C1.77213542 7.98177083 1.54427083 5.96354167 1.31640625 3.9453125 C1.08707039 1.92595684 1.08707039 1.92595684 0 0 Z " fill="#0A0A0A" transform="translate(177,166)"/>
<path d="M0 0 C0.33 0 0.66 0 1 0 C1 2.64 1 5.28 1 8 C1.66 8 2.32 8 3 8 C3.33 9.65 3.66 11.3 4 13 C3.01 13.33 2.02 13.66 1 14 C-0.04976964 10.85069107 -0.10131595 8.61185544 -0.0625 5.3125 C-0.05347656 4.31863281 -0.04445312 3.32476562 -0.03515625 2.30078125 C-0.02355469 1.54152344 -0.01195312 0.78226563 0 0 Z " fill="#DFD2B1" transform="translate(140,236)"/>
<path d="M0 0 C0.33 0.99 0.66 1.98 1 3 C-0.11375 2.95875 -1.2275 2.9175 -2.375 2.875 C-6.04366025 2.58878141 -6.04366025 2.58878141 -8 5 C-8.33 3.68 -8.66 2.36 -9 1 C-6.04335481 -0.4783226 -3.25770263 -0.06032783 0 0 Z " fill="#CEC5A5" transform="translate(130,235)"/>
<path d="M0 0 C4 0 4 0 6.75 2.5 C7.86375 3.7375 7.86375 3.7375 9 5 C8.67 5.99 8.34 6.98 8 8 C7.236875 7.195625 6.47375 6.39125 5.6875 5.5625 C3.20569102 2.83200976 3.20569102 2.83200976 0 2 C0 1.34 0 0.68 0 0 Z " fill="#D1C397" transform="translate(243,242)"/>
<path d="M0 0 C1.32 0.33 2.64 0.66 4 1 C3 4 3 4 2 6 C0.68 6 -0.64 6 -2 6 C-1.34 4.02 -0.68 2.04 0 0 Z " fill="#E8D99F" transform="translate(80,238)"/>
<path d="M0 0 C0.556875 0.78375 1.11375 1.5675 1.6875 2.375 C4.07668565 5.08704858 5.60073413 5.96133543 9 7 C9 7.33 9 7.66 9 8 C6.03 8 3.06 8 0 8 C0 5.36 0 2.72 0 0 Z " fill="#171717" transform="translate(347,224)"/>
<path d="M0 0 C0.66 0.33 1.32 0.66 2 1 C2 2.98 2 4.96 2 7 C0.68 7 -0.64 7 -2 7 C-1.125 1.125 -1.125 1.125 0 0 Z " fill="#3C3C3C" transform="translate(331,192)"/>
<path d="M0 0 C2.31 0 4.62 0 7 0 C6.01 0.33 5.02 0.66 4 1 C4 1.66 4 2.32 4 3 C4.99 3.33 5.98 3.66 7 4 C4.69 4 2.38 4 0 4 C0 2.68 0 1.36 0 0 Z " fill="#F4E4BA" transform="translate(272,237)"/>
<path d="M0 0 C1.32 0.33 2.64 0.66 4 1 C4.33 2.32 4.66 3.64 5 5 C3.35 5 1.7 5 0 5 C0 3.35 0 1.7 0 0 Z " fill="#F9EDC1" transform="translate(298,237)"/>
<path d="M0 0 C2.64 0 5.28 0 8 0 C7.4225 0.226875 6.845 0.45375 6.25 0.6875 C3.4336339 2.33038023 1.91922886 4.39533227 0 7 C0 4.69 0 2.38 0 0 Z " fill="#272727" transform="translate(323,208)"/>
<path d="M0 0 C0.33 0.66 0.66 1.32 1 2 C-3.64849515 4.3992233 -7.91086074 4.19957409 -13 4 C-13 3.67 -13 3.34 -13 3 C-10.69 3 -8.38 3 -6 3 C-6 2.34 -6 1.68 -6 1 C-4.02 0.67 -2.04 0.34 0 0 Z " fill="#E0A44D" transform="translate(182,148)"/>
<path d="M0 0 C0 2.31 0 4.62 0 7 C-0.33 5.68 -0.66 4.36 -1 3 C-3.31 3.66 -5.62 4.32 -8 5 C-3.375 0 -3.375 0 0 0 Z " fill="#DCAD63" transform="translate(194,72)"/>
<path d="M0 0 C0.33 0 0.66 0 1 0 C2.125 6.75 2.125 6.75 1 9 C-1.64 8.34 -4.28 7.68 -7 7 C-7 6.67 -7 6.34 -7 6 C-4.69 6 -2.38 6 0 6 C0 4.02 0 2.04 0 0 Z " fill="#E1D3AC" transform="translate(291,240)"/>
<path d="M0 0 C2.31 0 4.62 0 7 0 C6.01 0.66 5.02 1.32 4 2 C4.99 2.66 5.98 3.32 7 4 C4.69 4 2.38 4 0 4 C0 2.68 0 1.36 0 0 Z " fill="#F2E2B7" transform="translate(188,237)"/>
<path d="M0 0 C1.32 0 2.64 0 4 0 C4 1.65 4 3.3 4 5 C2.68 5 1.36 5 0 5 C0 3.35 0 1.7 0 0 Z " fill="#F7E8B3" transform="translate(54,237)"/>
<path d="M0 0 C1.09658936 3.28976808 0.79953138 4.71303767 0 8 C-1.65 8 -3.3 8 -5 8 C-5 6 -5 6 -3.0625 4 C-2.381875 3.34 -1.70125 2.68 -1 2 C-0.67 1.34 -0.34 0.68 0 0 Z " fill="#1C1C1C" transform="translate(295,224)"/>
<path d="M0 0 C2.64 0 5.28 0 8 0 C7.13375 0.37125 7.13375 0.37125 6.25 0.75 C3.6997003 2.16683317 1.98214299 3.87627537 0 6 C0 4.02 0 2.04 0 0 Z " fill="#212121" transform="translate(252,208)"/>
<path d="M0 0 C2.22825644 2.22825644 2.69239369 3.65761628 3.625 6.625 C4.01558594 7.85089844 4.01558594 7.85089844 4.4140625 9.1015625 C4.60742188 9.72804687 4.80078125 10.35453125 5 11 C3.046875 10.2890625 3.046875 10.2890625 1 9 C0.390625 6.8359375 0.390625 6.8359375 0.25 4.375 C0.19328125 3.55773437 0.1365625 2.74046875 0.078125 1.8984375 C0.05234375 1.27195313 0.0265625 0.64546875 0 0 Z " fill="#5A5A5A" transform="translate(134,196)"/>
<path d="M0 0 C0.66 0 1.32 0 2 0 C1.67 1.32 1.34 2.64 1 4 C3.64 4 6.28 4 9 4 C9 4.33 9 4.66 9 5 C5.37 5 1.74 5 -2 5 C-1.34 3.35 -0.68 1.7 0 0 Z " fill="#252525" transform="translate(335,184)"/>
<path d="M0 0 C0.66 0.33 1.32 0.66 2 1 C1.34 2.32 0.68 3.64 0 5 C-0.66 4.67 -1.32 4.34 -2 4 C-2.33 4.66 -2.66 5.32 -3 6 C-3 5.34 -3 4.68 -3 4 C-3.66 3.67 -4.32 3.34 -5 3 C-2.625 1.4375 -2.625 1.4375 0 0 Z " fill="#050505" transform="translate(77,167)"/>
<path d="M0 0 C1.32 0.33 2.64 0.66 4 1 C4 2.32 4 3.64 4 5 C2.68 5 1.36 5 0 5 C0 3.35 0 1.7 0 0 Z " fill="#F9ECBB" transform="translate(262,237)"/>
<path d="M0 0 C1.32 0 2.64 0 4 0 C4 1.32 4 2.64 4 4 C2.68 4.33 1.36 4.66 0 5 C0 3.35 0 1.7 0 0 Z " fill="#F9E8B0" transform="translate(243,237)"/>
<path d="M0 0 C0.33 0 0.66 0 1 0 C1 2.97 1 5.94 1 9 C0.01 9 -0.98 9 -2 9 C-2.25 3.375 -2.25 3.375 0 0 Z " fill="#F2E5BC" transform="translate(295,237)"/>
<path d="M0 0 C0.66 0.33 1.32 0.66 2 1 C0.38405168 3.04119788 -1.2856382 5.04072937 -3 7 C-3.66 7 -4.32 7 -5 7 C-3.70700306 4.11562221 -2.34058637 2.12780579 0 0 Z " fill="#3B3B3B" transform="translate(222,167)"/>
<path d="M0 0 C2.05078125 0.03255208 4.1015625 0.06510417 6.15234375 0.09765625 C6.15234375 0.42765625 6.15234375 0.75765625 6.15234375 1.09765625 C5.05921875 1.38640625 3.96609375 1.67515625 2.83984375 1.97265625 C-0.8877947 2.91658829 -0.8877947 2.91658829 -3.84765625 5.09765625 C-2.72914438 0.14424653 -2.72914438 0.14424653 0 0 Z " fill="#D6D6D6" transform="translate(230.84765625,166.90234375)"/>
<path d="M0 0 C0.99 0 1.98 0 3 0 C3 0.99 3 1.98 3 3 C2.34 3 1.68 3 1 3 C1 3.66 1 4.32 1 5 C0.01 5 -0.98 5 -2 5 C-1.34 3.35 -0.68 1.7 0 0 Z " fill="#D3C19B" transform="translate(79,235)"/>
<path d="M0 0 C2 1.375 2 1.375 4 3 C4 3.66 4 4.32 4 5 C2.35 5 0.7 5 -1 5 C-0.67 3.35 -0.34 1.7 0 0 Z " fill="#353535" transform="translate(320,194)"/>
</svg>
